# Blender 4.5.3 LTS
# www.blender.org
mtllib coche_cofre.mtl
g cofre_Mesh
v -4.029982 1.586115 1.772900
v -5.314916 1.586119 2.092536
v -5.658820 4.193878 0.925204
v -5.659988 4.635917 0.617814
v -5.658197 4.857710 0.338486
v -5.664896 4.926847 0.133373
v -5.470403 3.216923 1.226811
v -4.079886 4.115677 0.792048
v -4.080479 4.557715 0.636107
v -4.081479 4.779509 0.356790
v -4.082388 4.848646 0.151655
v -4.074286 3.156225 1.080227
v -3.167267 3.915916 0.705788
v -3.167855 4.357954 0.549847
v -3.168540 4.579747 0.353321
v -3.178328 4.634125 0.148220
v -3.161477 3.131952 0.915151
v -2.105164 3.315958 0.567933
v -2.105860 3.757996 0.383516
v -2.091351 3.932873 0.248550
v -2.121468 4.024979 0.083988
v -3.117548 1.561842 1.509840
v -1.524538 0.961884 1.155958
v -2.099527 2.531995 0.736944
v -0.131630 2.046185 0.505992
v -0.132004 2.396803 0.406225
v -0.132633 2.650987 0.224318
v -0.150921 2.758860 0.063466
v -0.250025 0.573837 0.903900
v -0.126072 1.262222 0.655442
v -0.203087 0.834510 0.809816
v -1.742615 1.705893 0.906897
v -3.134523 2.305851 1.194256
v -4.046957 2.330124 1.457891
v -5.373927 2.353112 1.729454
v -6.921299 4.992574 0.142676
v -6.853296 4.923437 0.347556
v -6.884637 4.701643 0.626996
v -6.883397 4.259605 0.953575
v -6.762833 3.199031 1.287089
v -6.670252 2.548040 1.670018
v -8.081500 5.053268 0.151266
v -7.956886 4.984132 0.355931
v -8.015516 4.762338 0.635475
v -8.014208 4.320300 0.979774
v -7.956301 3.182509 1.342751
v -7.867702 2.728042 1.513935
v -7.389099 1.913668 2.264183
v -0.151138 2.758860 0.006410
v -2.121714 4.024980 0.019257
v -3.178709 4.634125 0.048035
v -4.082769 4.848646 0.051470
v -5.665224 4.955044 0.047492
v -6.921636 5.020772 0.054127
v -8.081845 5.081465 0.060255
v -0.128853 1.654313 0.580696
v -2.102346 2.924086 0.652415
v -3.164372 3.524044 0.810440
v -4.077086 3.636086 0.936097
v -5.564638 3.705537 1.075965
v -6.823133 3.729467 1.120285
v -7.985262 3.751564 1.161212
v -5.525604 4.954491 0.004512
v -3.986094 4.875368 0.008652
v -2.787119 4.792855 0.010178
v -1.411554 4.145786 0.002173
v -3.488775 1.571717 1.616867
v -3.505750 2.315727 1.301516
v -3.532855 3.141828 0.982313
v -3.535713 3.569628 0.861564
v -3.538569 3.997190 0.740883
v -3.539158 4.439227 0.584942
v -3.539971 4.661020 0.354733
v -3.546148 4.721403 0.149617
v -3.546530 4.721403 0.049432
v -3.274924 4.826425 0.009557
v -3.696875 1.577253 1.676863
v -3.713850 2.321262 1.361644
v -3.741040 3.147364 1.019962
v -3.743876 3.595182 0.890223
v -3.746712 4.042749 0.760557
v -3.747301 4.484787 0.604616
v -3.748187 4.706580 0.355524
v -3.752338 4.770329 0.150401
v -3.752720 4.770329 0.050216
v -3.548378 4.845244 0.009209
v -7.038358 1.251603 2.676847
v -5.108755 0.940942 2.404817
v -3.852093 0.785836 2.084341
v -3.434039 0.786307 1.947703
v -3.172873 0.786601 1.862343
v -2.706980 0.787125 1.710070
v -1.509960 0.473881 1.411682
v 0.081854 0.173989 1.081301
v -0.691385 0.319665 1.241787
v -0.869135 0.762335 1.026340
v -0.950928 1.257794 0.856974
v -1.084702 1.879027 0.695033
v -1.087498 2.271119 0.615534
v -1.090298 2.662991 0.536081
v -1.090822 3.058017 0.395194
v -1.084099 3.273677 0.236089
v -1.108137 3.373891 0.073435
v -1.108368 3.373891 0.012650
v -0.377630 3.516824 -0.002064
v -6.557522 1.901139 2.221544
v -6.071171 1.095889 2.540496
v -7.531892 2.156636 2.040347
v -6.591155 2.094141 2.056997
v -5.332521 1.814951 1.984210
v -4.035046 1.808089 1.678917
v -3.701938 1.799228 1.582818
v -3.493839 1.793692 1.522782
v -3.122614 1.783816 1.415686
v -1.589600 1.183859 1.081651
v -0.893538 0.910155 0.975810
v -0.236019 0.651608 0.875830
v -7.719916 2.476574 1.745602
v -6.635442 2.348285 1.840322
v -5.355707 2.116274 1.841569
v -4.041715 2.100384 1.555162
v -3.708608 2.091522 1.458980
v -3.500509 2.085986 1.398893
v -3.129280 2.076111 1.291704
v -1.675274 1.476153 0.983804
v -0.925671 1.104802 0.909272
v -0.217581 0.754018 0.838868
v -6.765158 0.735906 2.998281
v -5.854421 0.586785 2.822737
v -4.948176 0.438399 2.648059
v -3.713531 0.162480 2.326929
v -3.229310 0.170220 2.158667
v -2.926809 0.175056 2.053550
v -2.387178 0.183682 1.866034
v -1.498604 0.093765 1.610871
v -0.132339 2.532843 0.308868
v -1.087225 3.173439 0.310041
v -2.098093 3.851591 0.311282
v -3.168221 4.476658 0.444666
v -3.539593 4.557931 0.461733
v -3.747775 4.603491 0.471301
v -4.081014 4.676420 0.486616
v -5.659029 4.754621 0.468317
v -6.867863 4.820348 0.477439
v -7.984138 4.881042 0.485863
v -7.564703 2.212469 1.988910
v -6.598885 2.138493 2.019184
v -5.336567 1.867535 1.959318
v -4.036209 1.859098 1.657320
v -3.703101 1.850236 1.561207
v -3.495003 1.844701 1.501162
v -3.123779 1.834825 1.394050
v -1.604551 1.234867 1.064575
v -0.899143 0.944123 0.964198
v -0.232801 0.669480 0.869380
v -0.087887 3.340564 -0.003251
v -0.824387 3.191431 0.010799
v -0.824160 3.191431 0.070477
v -0.801830 3.088945 0.232597
v -0.803940 2.983395 0.309693
v -0.806376 2.861857 0.398466
v -0.805891 2.480005 0.527154
v -0.803101 2.088133 0.605199
v -0.800308 1.696041 0.683288
v -0.729067 1.132220 0.842984
v -0.715603 1.000736 0.888385
v -0.701464 0.862645 0.936069
v -0.698473 0.833452 0.946149
v -0.685465 0.706413 0.990016
v -0.461990 0.276447 1.194176
v -5.479829 3.216923 -1.253250
v -5.387177 2.353112 -1.756612
v -4.058181 2.330124 -1.495144
v -4.082638 3.156226 -1.117283
v -5.330927 1.586120 -2.120132
v -6.574477 1.901139 -2.239691
v -6.090566 1.095889 -2.562330
v -5.127147 0.940942 -2.433971
v -4.043601 1.586115 -1.810273
v -3.868084 0.785836 -2.123057
v -8.021683 4.320300 -0.986884
v -8.020373 4.762338 -0.642585
v -7.987860 4.881042 -0.493215
v -7.959620 4.984131 -0.363495
v -8.082675 5.053268 -0.157888
v -8.082329 5.081465 -0.066877
v -8.082088 5.085538 -0.003311
v -7.994117 3.751564 -1.168536
v -5.664780 4.635917 -0.642829
v -5.665949 4.193878 -0.950220
v -4.086048 4.115677 -0.829070
v -4.085455 4.557715 -0.673128
v -5.660865 4.857710 -0.363523
v -5.662684 4.754621 -0.493344
v -4.084854 4.676419 -0.523638
v -4.084332 4.779509 -0.393812
v -5.666005 4.926847 -0.158365
v -4.083682 4.848646 -0.188676
v -5.525671 4.973440 -0.013027
v -5.525737 4.954491 -0.030566
v -3.986303 4.875368 -0.046409
v -3.986238 4.894318 -0.018878
v -5.572915 3.705538 -1.101693
v -4.084343 3.636086 -0.973136
v -3.752644 4.042749 -0.800112
v -3.752048 4.484787 -0.644171
v -3.751509 4.603491 -0.510856
v -3.751040 4.706580 -0.395079
v -3.753633 4.770329 -0.189931
v -3.548604 4.845244 -0.050294
v -3.496739 4.867284 -0.020739
v -3.750793 3.595182 -0.929796
v -3.172202 4.357954 -0.593808
v -3.172799 3.915916 -0.749750
v -2.109678 3.315958 -0.619972
v -2.108973 3.757996 -0.435555
v -3.171392 4.579747 -0.397283
v -3.171768 4.476658 -0.488628
v -2.100658 3.851591 -0.363382
v -2.093439 3.932873 -0.300703
v -3.179622 4.634125 -0.192113
v -2.122303 4.024979 -0.135917
v -2.645426 4.820268 -0.023975
v -2.787374 4.792855 -0.057049
v -1.411789 4.145786 -0.059501
v -1.269997 4.173280 -0.029202
v -3.170700 3.524044 -0.854421
v -2.107504 2.924086 -0.704473
v -3.724352 2.321262 -1.401432
v -3.748943 3.147364 -1.059553
v -3.449003 0.786307 -1.989601
v -3.709773 1.577253 -1.716771
v -3.168601 3.131953 -0.959150
v -3.143770 2.305851 -1.238452
v -1.749716 1.705893 -0.961682
v -2.105328 2.531995 -0.789021
v -3.129194 1.561842 -1.554157
v -2.720160 0.787125 -1.757502
v -1.520906 0.473881 -1.468221
v -1.533539 0.961884 -1.212394
v -7.406356 1.913669 -2.276007
v -7.058762 1.251603 -2.691326
v -6.642104 0.457995 -3.189163
v -6.701764 0.367572 -3.272870
v -5.803224 0.233040 -3.069695
v -5.760318 0.312426 -2.999196
v -4.882880 0.167576 -2.810166
v -1.094599 2.662991 -0.595835
v -1.094053 3.058017 -0.454948
v -1.089809 3.173439 -0.369825
v -1.086121 3.273677 -0.295899
v -1.108921 3.373891 -0.133067
v -0.377863 3.516824 -0.063123
v -0.236099 3.544338 -0.033132
v -1.092403 2.271119 -0.675308
v -0.957674 1.257794 -0.917779
v -1.090212 1.879028 -0.754825
v -0.701063 0.319665 -1.304553
v -0.877171 0.762335 -1.087762
v -0.135347 2.396803 -0.473267
v -0.135731 2.046185 -0.573034
v -0.134592 2.650987 -0.291360
v -0.134943 2.532843 -0.375910
v -0.151657 2.758861 -0.130374
v -0.133522 1.654314 -0.647758
v -0.131310 1.262222 -0.722522
v -0.209496 0.834511 -0.876306
v -0.257147 0.573837 -0.970031
v 0.073374 0.173989 -1.149950
v -6.772679 3.199031 -1.303702
v -6.683013 2.548040 -1.687324
v -5.369809 2.116274 -1.868862
v -4.053679 2.100384 -1.592451
v -3.719850 2.091522 -1.498804
v -3.139267 2.076111 -1.335938
v -1.682962 1.476153 -1.039099
v -0.932814 1.104802 -0.970267
v -0.224209 0.754018 -0.905247
v -5.347709 1.814951 -2.011676
v -6.606859 2.094142 -2.074893
v -6.890705 4.259605 -0.969281
v -6.889463 4.701643 -0.642702
v -6.871552 4.820348 -0.493277
v -6.855999 4.923437 -0.363509
v -6.922442 4.992574 -0.158117
v -5.665680 4.955044 -0.072484
v -6.922106 5.020771 -0.069569
v -6.831710 3.729467 -1.136445
v -7.966537 3.182509 -1.350291
v -7.879242 2.728043 -1.522143
v -7.547442 2.156637 -2.051092
v -4.083301 4.848646 -0.088491
v -3.753252 4.770329 -0.089746
v -3.179241 4.634125 -0.091928
v -2.122057 4.024980 -0.071186
v -1.108690 3.373891 -0.072282
v -0.151442 2.758860 -0.073318
v -6.921871 5.024844 -0.007721
v -6.775956 0.255120 -3.376969
v -3.544357 3.997190 -0.782021
v -3.543761 4.439227 -0.626080
v -3.543260 4.557931 -0.502871
v -3.542824 4.661020 -0.395871
v -3.547442 4.721403 -0.190715
v -3.275162 4.826425 -0.052720
v -3.190939 4.850395 -0.021901
v -3.542418 3.569629 -0.902720
v -3.515800 2.315727 -1.342888
v -3.540479 3.141828 -1.023487
v -2.401552 0.183682 -1.915891
v -2.942593 0.175056 -2.099300
v -3.501224 1.571718 -1.658358
v -3.133543 1.783817 -1.459967
v -3.505572 1.793692 -1.564238
v -3.547062 4.721403 -0.090529
v -3.245884 0.170221 -2.202115
v -3.714121 1.799228 -1.622690
v -6.788013 0.735906 -3.014827
v -5.875967 0.586785 -2.846211
v -4.968421 0.438399 -2.678428
v -3.731370 0.162481 -2.366691
v -3.187196 0.786601 -1.906229
v -0.810133 2.480005 -0.589071
v -0.809639 2.861857 -0.460383
v -0.806530 2.983395 -0.371630
v -0.803835 3.088945 -0.294553
v -0.824930 3.191431 -0.132268
v -0.088118 3.340564 -0.064138
v 0.053637 3.368084 -0.034233
v -0.807936 2.088133 -0.667135
v -0.735712 1.132219 -0.905475
v -0.805738 1.696041 -0.745242
v -0.471313 0.276448 -1.258687
v -0.693230 0.706413 -1.052835
v -0.705904 0.833452 -1.008870
v -0.901188 0.910155 -1.037047
v -0.824703 3.191431 -0.072589
v -4.047950 1.808089 -1.716254
v -1.598034 1.183859 -1.137594
v -0.242929 0.651608 -0.942068
v -5.351565 1.867535 -1.986753
v -6.614301 2.138493 -2.037023
v -7.579862 2.212469 -1.999408
v -3.134544 1.834826 -1.438322
v -3.506572 1.844701 -1.542609
v -3.715120 1.850237 -1.601070
v -0.239662 0.669480 -0.935643
v -0.708817 0.862645 -0.998767
v -6.649498 2.348285 -1.857888
v -7.733221 2.476574 -1.754927
v -3.511300 2.085986 -1.440301
v -0.722593 1.000736 -0.950978
v -4.048949 1.859098 -1.694649
v -1.612856 1.234867 -1.120406
v -0.906706 0.944123 -1.025393
vn 0.0849 0.4000 0.9126
vn 0.2153 0.4083 0.8871
vn 0.1488 0.3441 0.9271
vn 0.2078 0.4556 0.8656
vn 0.2111 0.5121 0.8326
vn 0.2330 0.4806 0.8454
vn 0.2483 0.4004 0.8820
vn 0.2861 0.4069 0.8675
vn 0.0517 0.6764 0.7347
vn 0.1101 0.3242 0.9396
vn 0.1035 0.5787 0.8089
vn 0.0448 0.8782 0.4761
vn 0.0394 0.7824 0.6215
vn 0.1172 0.8753 0.4692
vn 0.0530 0.9489 0.3110
vn 0.1370 0.9777 0.1592
vn 0.1497 0.9887 -0.0006
vn 0.1020 0.8657 0.4901
vn 0.0556 0.9985 -0.0002
vn 0.0691 0.4412 0.8947
vn 0.0696 0.3054 0.9497
vn 0.1912 0.5428 0.8178
vn 0.1089 0.7762 0.6210
vn 0.1973 0.8574 0.4754
vn 0.2261 0.9630 0.1464
vn 0.0464 0.5667 0.8226
vn 0.0619 0.9981 -0.0002
vn 0.1344 0.2857 0.9488
vn 0.1569 0.3039 0.9397
vn 0.2873 0.4956 0.8197
vn 0.2531 0.2894 0.9232
vn 0.3531 0.4621 0.8135
vn 0.3445 0.8076 0.4787
vn 0.3128 0.6337 0.7075
vn 0.4614 0.6919 0.5553
vn 0.3654 0.9233 0.1183
vn 0.5150 0.8389 0.1763
vn 0.3548 0.9349 -0.0013
vn 0.0593 0.4179 0.9066
vn 0.4993 0.8665 -0.0019
vn 0.2210 0.2940 0.9299
vn 0.2176 0.2529 0.9427
vn 0.2603 0.3855 0.8852
vn 0.1793 0.3227 0.9294
vn 0.2665 0.3880 0.8823
vn 0.2369 0.2781 0.9309
vn 0.2937 0.3514 0.8890
vn 0.2535 0.2591 0.9320
vn 0.2977 0.3826 0.8746
vn 0.3104 0.3941 0.8651
vn 0.3098 0.4103 0.8577
vn 0.3030 0.4438 0.8433
vn 0.3909 0.5432 0.7431
vn 0.4450 0.6719 0.5920
vn 0.5331 0.8218 0.2011
vn 0.0885 0.1387 0.9864
vn 0.5201 0.8541 -0.0020
vn 0.2173 0.2090 0.9535
vn 0.1952 0.2605 0.9455
vn 0.2838 0.3391 0.8969
vn 0.1946 0.2434 0.9502
vn 0.2935 0.4509 0.8429
vn 0.2862 0.4238 0.8593
vn 0.1247 0.4746 0.8713
vn 0.0189 0.5841 0.8115
vn 0.2312 0.3852 0.8934
vn 0.2658 0.3812 0.8855
vn 0.3024 0.3783 0.8749
vn 0.3049 0.3805 0.8731
vn 0.2427 0.3221 0.9151
vn 0.1390 0.5751 0.8062
vn 0.1955 0.4381 0.8774
vn 0.1097 0.6567 0.7461
vn 0.0427 0.4532 0.8904
vn 0.0451 0.6939 0.7187
vn 0.0472 0.7799 0.6242
vn 0.0513 0.8801 0.4721
vn 0.0526 0.9517 0.3026
vn 0.0487 0.9810 0.1880
vn 0.0230 0.3981 0.9170
vn 0.0393 0.3038 0.9519
vn 0.0116 0.5038 0.8637
vn 0.0413 0.6342 0.7721
vn 0.0309 0.6863 0.7266
vn 0.0410 0.4698 0.8818
vn 0.0428 0.6979 0.7149
vn 0.0467 0.7778 0.6267
vn 0.0509 0.8916 0.4500
vn 0.0521 0.9545 0.2936
vn 0.0526 0.9822 0.1804
vn 0.0391 0.3305 0.9430
vn 0.0390 0.3052 0.9515
vn 0.0584 0.9335 0.3538
vn 0.1125 0.9306 0.3483
vn 0.1654 0.8266 0.5380
vn 0.2530 0.6978 0.6702
vn 0.3786 0.5951 0.7088
vn 0.3898 0.6015 0.6973
vn 0.0446 0.9990 -0.0002
vn 0.1646 0.2757 0.9470
vn 0.1627 0.1972 0.9668
vn 0.0869 0.7423 0.6644
vn 0.0902 0.1647 0.9822
vn 0.1558 0.3005 0.9410
vn 0.1869 0.5267 0.8293
vn 0.1851 0.7081 0.6814
vn 0.1964 0.8522 0.4850
vn 0.2270 0.9641 0.1378
vn 0.0425 0.5046 0.8623
vn 0.0623 0.9981 -0.0002
vn 0.1628 0.2684 0.9494
vn 0.2633 0.3730 0.8897
vn 0.1818 0.3052 0.9348
vn 0.2663 0.3843 0.8840
vn 0.2656 0.3814 0.8855
vn 0.1754 0.7862 0.5926
vn 0.1917 0.7338 0.6517
vn 0.2656 0.3812 0.8855
vn 0.1555 0.5363 0.8295
vn 0.2185 0.5783 0.7860
vn 0.2672 0.4728 0.8397
vn 0.3013 0.4008 0.8652
vn 0.2855 0.3941 0.8736
vn 0.3065 0.3966 0.8653
vn 0.2772 0.4525 0.8476
vn 0.2708 0.5077 0.8179
vn 0.2853 0.3877 0.8765
vn 0.2949 0.4368 0.8498
vn 0.3660 0.5441 0.7550
vn 0.3665 0.5449 0.7541
vn 0.5317 0.8207 0.2089
vn 0.0945 0.1475 0.9845
vn 0.1854 0.2510 0.9501
vn 0.1938 0.2424 0.9506
vn 0.2932 0.4318 0.8530
vn 0.2720 0.3401 0.9002
vn 0.2765 0.3525 0.8940
vn 0.1594 0.1939 0.9680
vn 0.3899 0.6002 0.6983
vn 0.2390 0.3836 0.8921
vn 0.3006 0.3783 0.8755
vn 0.3093 0.3817 0.8710
vn 0.1753 0.4336 0.8839
vn 0.0861 0.6485 0.7563
vn 0.2656 0.3813 0.8854
vn 0.2657 0.3812 0.8855
vn 0.2619 0.2904 0.9204
vn 0.2524 0.2890 0.9235
vn 0.1558 0.4392 0.8848
vn 0.0530 0.6486 0.7593
vn 0.0102 0.6784 0.7346
vn 0.2658 0.3813 0.8854
vn 0.2452 0.2941 0.9238
vn 0.2330 0.2963 0.9262
vn 0.2574 0.3392 0.9048
vn 0.2945 0.3882 0.8732
vn 0.2947 0.3939 0.8707
vn 0.2258 0.5316 0.8164
vn 0.3652 0.5425 0.7565
vn 0.4204 0.6296 0.6533
vn 0.2360 0.3850 0.8922
vn 0.3076 0.3810 0.8719
vn 0.3013 0.3784 0.8752
vn 0.2705 0.3500 0.8968
vn 0.0223 0.6813 0.7316
vn 0.2654 0.3378 0.9031
vn 0.2639 0.3508 0.8985
vn 0.2610 0.3725 0.8906
vn 0.4419 0.6679 0.5989
vn 0.5287 0.8113 0.2495
vn 0.1706 0.2144 0.9617
vn 0.2399 0.3170 0.9176
vn 0.2034 0.2570 0.9448
vn 0.2832 0.5433 0.7904
vn 0.2870 0.4522 0.8445
vn 0.1582 0.1873 0.9695
vn 0.4467 0.6895 0.5701
vn 0.0780 0.4000 -0.9132
vn 0.2085 0.4083 -0.8887
vn 0.1181 0.4746 -0.8722
vn 0.2012 0.4556 -0.8671
vn 0.2047 0.5121 -0.8342
vn 0.1329 0.5751 -0.8072
vn 0.2416 0.4004 -0.8839
vn 0.2266 0.4806 -0.8472
vn 0.0462 0.6764 -0.7351
vn 0.1030 0.3242 -0.9404
vn 0.0623 0.4412 -0.8952
vn 0.1136 0.8753 -0.4700
vn 0.1042 0.7762 -0.6218
vn 0.0347 0.7824 -0.6218
vn 0.0506 0.9489 -0.3114
vn 0.0412 0.8782 -0.4764
vn 0.0819 0.7423 -0.6651
vn 0.0982 0.8657 -0.4909
vn 0.1272 0.2857 -0.9498
vn 0.0624 0.3054 -0.9502
vn 0.1850 0.5428 -0.8192
vn 0.1497 0.3039 -0.9409
vn 0.1936 0.8574 -0.4769
vn 0.1868 0.7338 -0.6532
vn 0.2250 0.9630 -0.1481
vn 0.0401 0.5667 -0.8230
vn 0.1574 0.2757 -0.9483
vn 0.2811 0.4956 -0.8218
vn 0.2460 0.2894 -0.9250
vn 0.2139 0.2940 -0.9315
vn 0.4572 0.6919 -0.5588
vn 0.3852 0.5432 -0.7460
vn 0.3075 0.6337 -0.7099
vn 0.3645 0.9233 -0.1211
vn 0.3408 0.8076 -0.4813
vn 0.0827 0.1647 -0.9829
vn 0.0524 0.4179 -0.9070
vn 0.2101 0.2090 -0.9551
vn 0.2104 0.2529 -0.9443
vn 0.1417 0.3441 -0.9282
vn 0.2536 0.3855 -0.8872
vn 0.2598 0.3880 -0.8843
vn 0.2789 0.3941 -0.8757
vn 0.2795 0.4069 -0.8697
vn 0.2464 0.2591 -0.9339
vn 0.2769 0.3391 -0.8991
vn 0.2869 0.3514 -0.8912
vn 0.3033 0.4103 -0.8600
vn 0.3012 0.4494 -0.8410
vn 0.3038 0.3941 -0.8674
vn 0.2527 0.5754 -0.7779
vn 0.2618 0.5578 -0.7876
vn 0.2616 0.5570 -0.7882
vn 0.2966 0.4438 -0.8456
vn 0.1880 0.2605 -0.9470
vn 0.4405 0.6719 -0.5953
vn 0.3608 0.5449 -0.7569
vn 0.5315 0.8218 -0.2051
vn 0.0810 0.1387 -0.9870
vn 0.1553 0.1972 -0.9680
vn 0.1874 0.2434 -0.9517
vn 0.2357 0.3221 -0.9169
vn 0.2797 0.4238 -0.8615
vn 0.2659 0.5158 -0.8144
vn 0.0127 0.5841 -0.8116
vn 0.0160 0.3981 -0.9172
vn 0.2244 0.3852 -0.8951
vn 0.1491 0.4392 -0.8859
vn 0.2591 0.3812 -0.8874
vn 0.2982 0.3805 -0.8754
vn 0.2958 0.3783 -0.8771
vn 0.2570 0.3508 -0.9005
vn 0.1888 0.4381 -0.8789
vn 0.0360 0.4532 -0.8907
vn 0.0425 0.7799 -0.6245
vn 0.0477 0.8801 -0.4725
vn 0.0472 0.9810 -0.1884
vn 0.0557 0.9335 -0.3542
vn 0.0051 0.5038 -0.8638
vn 0.0319 0.3305 -0.9433
vn 0.0355 0.6342 -0.7724
vn 0.1040 0.6567 -0.7469
vn 0.0343 0.4698 -0.8821
vn 0.0396 0.6939 -0.7190
vn 0.0420 0.7778 -0.6271
vn 0.0475 0.8916 -0.4503
vn 0.0503 0.9517 -0.3030
vn 0.0512 0.9822 -0.1808
vn 0.0320 0.3038 -0.9522
vn 0.1099 0.9306 -0.3491
vn 0.1358 0.9777 -0.1602
vn 0.1613 0.8266 -0.5392
vn 0.3732 0.5951 -0.7117
vn 0.5136 0.8389 -0.1803
vn 0.3845 0.6015 -0.7002
vn 0.0522 0.9986 -0.0002
vn 0.1722 0.3227 -0.9307
vn 0.2298 0.2781 -0.9327
vn 0.0318 0.3052 -0.9517
vn 0.2479 0.6978 -0.6721
vn 0.1487 0.3005 -0.9421
vn 0.1806 0.5267 -0.8306
vn 0.1927 0.8522 -0.4865
vn 0.1556 0.2684 -0.9506
vn 0.1747 0.3052 -0.9361
vn 0.2588 0.3814 -0.8874
vn 0.2939 0.3783 -0.8778
vn 0.2911 0.3826 -0.8768
vn 0.1709 0.7862 -0.5939
vn 0.0360 0.5046 -0.8626
vn 0.1799 0.7081 -0.6828
vn 0.2259 0.9641 -0.1395
vn 0.2565 0.3730 -0.8917
vn 0.2589 0.3812 -0.8875
vn 0.2595 0.3843 -0.8860
vn 0.2349 0.5443 -0.8053
vn 0.2222 0.5873 -0.7783
vn 0.2963 0.4081 -0.8635
vn 0.2699 0.4851 -0.8318
vn 0.2881 0.3939 -0.8729
vn 0.2786 0.3877 -0.8787
vn 0.2885 0.4368 -0.8521
vn 0.1782 0.2510 -0.9515
vn 0.3602 0.5441 -0.7577
vn 0.5301 0.8207 -0.2130
vn 0.4373 0.6679 -0.6023
vn 0.5197 0.8543 -0.0020
vn 0.0870 0.1475 -0.9852
vn 0.1520 0.1939 -0.9692
vn 0.1866 0.2424 -0.9521
vn 0.2329 0.3170 -0.9194
vn 0.2867 0.4318 -0.8552
vn 0.2771 0.5433 -0.7925
vn 0.2651 0.3401 -0.9022
vn 0.3846 0.6002 -0.7013
vn 0.1492 0.5363 -0.8307
vn 0.2528 0.5469 -0.7981
vn 0.2913 0.4913 -0.8208
vn 0.2322 0.3836 -0.8939
vn 0.3027 0.3817 -0.8733
vn 0.2697 0.3525 -0.8961
vn 0.0803 0.6485 -0.7569
vn 0.1686 0.4336 -0.8852
vn 0.0254 0.6863 -0.7269
vn 0.0167 0.6813 -0.7318
vn 0.2589 0.3813 -0.8874
vn 0.2947 0.3784 -0.8775
vn 0.2585 0.3378 -0.9050
vn 0.2454 0.2890 -0.9254
vn 0.0473 0.6486 -0.7597
vn 0.0047 0.6784 -0.7347
vn 0.2590 0.3813 -0.8874
vn 0.2505 0.3392 -0.9068
vn 0.2259 0.2963 -0.9280
vn 0.2879 0.3882 -0.8755
vn 0.0973 0.5787 -0.8097
vn 0.3469 0.4621 -0.8162
vn 0.4154 0.6296 -0.6565
vn 0.2293 0.3850 -0.8940
vn 0.3009 0.3810 -0.8742
vn 0.2637 0.3500 -0.8989
vn 0.2382 0.2941 -0.9256
vn 0.2542 0.3725 -0.8925
vn 0.1633 0.2144 -0.9630
vn 0.3594 0.5425 -0.7593
vn 0.5268 0.8113 -0.2535
vn 0.1508 0.1873 -0.9707
vn 0.1962 0.2570 -0.9463
vn 0.2806 0.4522 -0.8466
vn 0.2626 0.5680 -0.7800
vn 0.2549 0.2904 -0.9224
vn 0.4424 0.6895 -0.5735
vn 0.2685 0.5680 0.7780
vn 0.0374 0.6979 -0.7152
vn 0.0499 0.9545 -0.2940
vn 0.3025 0.3882 -0.8705
vt 0.640188 0.703859
vt 0.615434 0.718407
vt 0.616524 0.703173
vt 0.636327 0.735296
vt 0.648947 0.746535
vt 0.632456 0.747308
vt 0.614351 0.732234
vt 0.610571 0.746546
vt 0.644173 0.678037
vt 0.617437 0.686286
vt 0.617773 0.678453
vt 0.643937 0.672045
vt 0.644065 0.674830
vt 0.617526 0.672650
vt 0.643882 0.668413
vt 0.617269 0.669095
vt 0.641362 0.665857
vt 0.641322 0.666276
vt 0.615399 0.666101
vt 0.643973 0.686944
vt 0.642103 0.695334
vt 0.612228 0.679175
vt 0.617648 0.675345
vt 0.611972 0.673604
vt 0.611601 0.670056
vt 0.607944 0.666908
vt 0.607087 0.666261
vt 0.617005 0.694765
vt 0.611839 0.687039
vt 0.602607 0.680331
vt 0.582895 0.695470
vt 0.583351 0.687476
vt 0.602448 0.675489
vt 0.602504 0.677731
vt 0.583126 0.683790
vt 0.601764 0.672038
vt 0.583057 0.680589
vt 0.592530 0.666233
vt 0.594915 0.667067
vt 0.568904 0.675920
vt 0.602094 0.688144
vt 0.601533 0.694916
vt 0.609636 0.717671
vt 0.610831 0.702682
vt 0.608618 0.731467
vt 0.600979 0.701710
vt 0.599559 0.716316
vt 0.581570 0.708776
vt 0.598688 0.730100
vt 0.590739 0.742998
vt 0.570005 0.735143
vt 0.565077 0.697104
vt 0.583189 0.685513
vt 0.564961 0.692606
vt 0.564808 0.689361
vt 0.552472 0.684487
vt 0.550116 0.683662
vt 0.582227 0.702123
vt 0.564576 0.704098
vt 0.574365 0.722264
vt 0.563283 0.717411
vt 0.569454 0.744413
vt 0.558422 0.736527
vt 0.638018 0.720676
vt 0.659947 0.718066
vt 0.615108 0.722661
vt 0.609338 0.721903
vt 0.599306 0.720556
vt 0.573034 0.726227
vt 0.560223 0.727941
vt 0.657695 0.732329
vt 0.636832 0.730964
vt 0.658291 0.728025
vt 0.664527 0.687126
vt 0.664633 0.677875
vt 0.664284 0.674621
vt 0.663971 0.671804
vt 0.664980 0.668142
vt 0.664903 0.666579
vt 0.661981 0.705627
vt 0.663273 0.696392
vt 0.680348 0.714989
vt 0.671581 0.733012
vt 0.674081 0.727651
vt 0.683460 0.686555
vt 0.683489 0.677122
vt 0.682941 0.673901
vt 0.682455 0.671110
vt 0.684435 0.667414
vt 0.684387 0.665814
vt 0.682167 0.706694
vt 0.682886 0.696627
vt 0.643751 0.666912
vt 0.617046 0.667473
vt 0.611300 0.668474
vt 0.601271 0.670380
vt 0.582715 0.679640
vt 0.564366 0.688437
vt 0.664856 0.665545
vt 0.611352 0.694860
vt 0.563917 0.710747
vt 0.615396 0.666660
vt 0.571192 0.676557
vt 0.608371 0.687457
vt 0.608811 0.679598
vt 0.608683 0.676729
vt 0.608538 0.674243
vt 0.608048 0.670705
vt 0.603233 0.666900
vt 0.601839 0.666168
vt 0.607835 0.694898
vt 0.606011 0.717192
vt 0.607282 0.702349
vt 0.605057 0.730985
vt 0.605361 0.726871
vt 0.607670 0.669101
vt 0.612089 0.676189
vt 0.608932 0.727355
vt 0.665538 0.745837
vt 0.660900 0.755895
vt 0.629469 0.756665
vt 0.607600 0.757722
vt 0.603320 0.745282
vt 0.584528 0.753062
vt 0.569012 0.751678
vt 0.555223 0.744675
vt 0.598806 0.744483
vt 0.559952 0.699832
vt 0.559886 0.697289
vt 0.564995 0.694706
vt 0.559670 0.691797
vt 0.547241 0.686914
vt 0.559460 0.706570
vt 0.558205 0.719866
vt 0.555188 0.736904
vt 0.555547 0.734719
vt 0.558984 0.733955
vt 0.558822 0.713221
vt 0.559236 0.690865
vt 0.614671 0.728125
vt 0.598977 0.725992
vt 0.571339 0.731295
vt 0.636992 0.729878
vt 0.658439 0.726991
vt 0.605430 0.725874
vt 0.609018 0.726356
vt 0.547341 0.736530
vt 0.547311 0.736262
vt 0.637536 0.725180
vt 0.659182 0.722341
vt 0.677495 0.720645
vt 0.605731 0.721422
vt 0.547151 0.734782
vt 0.547013 0.733399
vt 0.555982 0.731841
vt 0.593910 0.755025
vt 0.599166 0.756078
vt 0.645140 0.756230
vt 0.547778 0.703476
vt 0.547794 0.700984
vt 0.614776 0.727123
vt 0.571601 0.730402
vt 0.599017 0.725002
vt 0.559074 0.733379
vt 0.674653 0.726496
vt 0.555604 0.734241
vt 0.559673 0.730590
vt 0.547785 0.706319
vt 0.559854 0.695065
vt 0.547567 0.697663
vt 0.547301 0.712417
vt 0.556325 0.729553
vt 0.546155 0.725767
vt 0.551256 0.744741
vt 0.547478 0.737802
vt 0.546720 0.719091
vt 0.547200 0.696726
vt 0.704809 0.949316
vt 0.681134 0.933073
vt 0.703820 0.932390
vt 0.703159 0.917686
vt 0.716535 0.907357
vt 0.724267 0.922140
vt 0.681022 0.919203
vt 0.700138 0.905432
vt 0.706978 0.975351
vt 0.680884 0.965257
vt 0.707402 0.966452
vt 0.680018 0.978863
vt 0.680328 0.976184
vt 0.706646 0.978542
vt 0.706013 0.984931
vt 0.706322 0.981312
vt 0.677438 0.985246
vt 0.677474 0.984689
vt 0.703309 0.986884
vt 0.681047 0.956768
vt 0.706123 0.957953
vt 0.675190 0.971985
vt 0.675353 0.964113
vt 0.674544 0.977523
vt 0.674842 0.974953
vt 0.673927 0.981036
vt 0.670058 0.983920
vt 0.675414 0.956277
vt 0.665673 0.970157
vt 0.647069 0.953676
vt 0.665709 0.962328
vt 0.646481 0.965346
vt 0.646665 0.963631
vt 0.665389 0.972743
vt 0.664252 0.978370
vt 0.665176 0.974976
vt 0.631742 0.972204
vt 0.634070 0.971729
vt 0.657072 0.982851
vt 0.646868 0.946992
vt 0.665623 0.955533
vt 0.681155 0.948346
vt 0.675299 0.933401
vt 0.675250 0.919567
vt 0.670932 0.905414
vt 0.678254 0.904661
vt 0.646679 0.940310
vt 0.640436 0.926349
vt 0.665152 0.934047
vt 0.636989 0.913196
vt 0.637089 0.903910
vt 0.658222 0.906812
vt 0.727029 0.893308
vt 0.712607 0.890410
vt 0.728188 0.891456
vt 0.629410 0.950798
vt 0.629400 0.943786
vt 0.628979 0.955277
vt 0.629160 0.953185
vt 0.628599 0.958504
vt 0.615953 0.962502
vt 0.629208 0.937107
vt 0.629042 0.930414
vt 0.626727 0.919696
vt 0.625531 0.911004
vt 0.622911 0.902652
vt 0.725515 0.936524
vt 0.726674 0.949073
vt 0.681106 0.928807
vt 0.703656 0.927863
vt 0.675298 0.929159
vt 0.639386 0.922303
vt 0.665197 0.929800
vt 0.626363 0.917014
vt 0.703360 0.922043
vt 0.727917 0.967705
vt 0.726800 0.980163
vt 0.726290 0.982951
vt 0.726854 0.988229
vt 0.705777 0.986419
vt 0.745652 0.941019
vt 0.746886 0.949422
vt 0.738167 0.922428
vt 0.724561 0.926475
vt 0.746764 0.969603
vt 0.727376 0.976941
vt 0.745360 0.982189
vt 0.744680 0.984940
vt 0.727040 0.986675
vt 0.746236 0.990358
vt 0.727316 0.958375
vt 0.679177 0.983993
vt 0.679514 0.982392
vt 0.673515 0.982592
vt 0.645780 0.969459
vt 0.646187 0.968535
vt 0.628094 0.959395
vt 0.726735 0.989257
vt 0.703321 0.987304
vt 0.746116 0.991420
vt 0.675442 0.948438
vt 0.665546 0.948717
vt 0.746898 0.959516
vt 0.663644 0.979990
vt 0.671922 0.963453
vt 0.671811 0.971323
vt 0.671164 0.976645
vt 0.663916 0.984231
vt 0.654635 0.983517
vt 0.671908 0.955993
vt 0.671878 0.948521
vt 0.671679 0.923923
vt 0.665249 0.924353
vt 0.665249 0.920235
vt 0.669938 0.981713
vt 0.665358 0.983599
vt 0.671482 0.974176
vt 0.670428 0.980140
vt 0.669157 0.984507
vt 0.671650 0.933625
vt 0.675275 0.923691
vt 0.671664 0.919798
vt 0.713415 0.897419
vt 0.729113 0.898855
vt 0.676073 0.893304
vt 0.697814 0.895889
vt 0.667545 0.894353
vt 0.666373 0.905896
vt 0.624488 0.947718
vt 0.624470 0.940962
vt 0.624245 0.950251
vt 0.623645 0.955714
vt 0.624057 0.952467
vt 0.613545 0.963159
vt 0.608501 0.960335
vt 0.610905 0.959715
vt 0.624299 0.934283
vt 0.624148 0.927610
vt 0.622951 0.917814
vt 0.622332 0.910401
vt 0.618958 0.902309
vt 0.622537 0.912606
vt 0.623147 0.956613
vt 0.733036 0.909213
vt 0.711752 0.892080
vt 0.696566 0.890720
vt 0.681053 0.923324
vt 0.638050 0.917128
vt 0.625911 0.913610
vt 0.724635 0.927517
vt 0.703443 0.923138
vt 0.740286 0.927950
vt 0.740776 0.929142
vt 0.671678 0.924924
vt 0.665219 0.925344
vt 0.675290 0.924694
vt 0.622559 0.913088
vt 0.614429 0.910491
vt 0.725051 0.932207
vt 0.743201 0.935177
vt 0.671667 0.929386
vt 0.622769 0.915508
vt 0.613930 0.913326
vt 0.662228 0.895036
vt 0.680671 0.973094
vt 0.646964 0.961683
vt 0.612442 0.945717
vt 0.681088 0.924332
vt 0.638249 0.918038
vt 0.625961 0.914191
vt 0.614165 0.911955
vt 0.612806 0.940395
vt 0.612750 0.934277
vt 0.612600 0.943230
vt 0.611982 0.949014
vt 0.612637 0.927579
vt 0.612541 0.920879
vt 0.614704 0.908965
vt 0.609540 0.901467
vt 0.614478 0.910225
vt 0.611551 0.949923
vt 0.684341 0.664746
vt 0.544886 0.686127
vt 0.541802 0.744921
vt 0.746132 0.979015
vt 0.746396 0.988765
vt 0.652732 0.896337
s 1
g off
g cofre_Material_#25
usemtl Material_#25
f 7/1/1 34/2/2 12/3/3
f 2/4/4 107/5/5 88/6/6
f 1/7/7 88/6/6 89/8/8
f 4/9/9 8/10/10 9/11/11
f 5/12/12 143/13/13 10/14/14
f 6/15/15 10/14/14 11/16/16
f 199/17/17 63/18/18 202/19/19
f 3/20/20 60/21/21 8/10/10
f 9/11/11 8/10/10 82/22/22
f 10/14/14 142/23/23 83/24/24
f 11/16/16 10/14/14 84/25/25
f 202/19/19 86/26/26 211/27/27
f 8/10/10 59/28/28 81/29/29
f 14/30/30 18/31/31 19/32/32
f 15/33/33 139/34/34 20/35/35
f 16/36/36 20/35/35 21/37/37
f 223/38/38 65/39/39 226/40/40
f 13/41/41 58/42/42 18/31/31
f 12/3/3 78/43/43 79/44/44
f 1/7/7 89/8/8 77/45/45
f 17/46/46 33/47/47 24/48/48
f 22/49/49 92/50/50 23/51/51
f 19/32/32 18/31/31 101/52/52
f 20/35/35 138/53/53 102/54/54
f 21/37/37 20/35/35 103/55/55
f 226/40/40 105/56/56 254/57/57
f 18/31/31 57/58/58 100/59/59
f 24/48/48 32/60/60 98/61/61
f 23/51/51 93/62/62 96/63/63
f 35/64/64 7/1/1 41/65/65
f 35/64/64 121/66/66 34/2/2
f 34/2/2 122/67/67 78/43/43
f 33/47/47 124/68/68 32/60/60
f 32/60/60 125/69/69 97/70/70
f 106/71/71 110/72/72 109/73/73
f 39/74/74 4/9/9 38/75/75
f 38/75/75 4/9/9 144/76/76
f 37/77/77 6/15/15 36/78/78
f 36/78/78 6/15/15 54/79/79
f 40/80/80 60/21/21 61/81/81
f 40/80/80 47/82/82 41/65/65
f 48/83/83 109/73/73 108/84/84
f 45/85/85 38/75/75 44/86/86
f 44/86/86 38/75/75 145/87/87
f 43/88/88 36/78/78 42/89/89
f 42/89/89 36/78/78 55/90/90
f 46/91/91 61/81/81 62/92/92
f 53/93/93 6/15/15 52/94/94
f 52/94/94 11/16/16 85/95/95
f 51/96/96 16/36/36 50/97/97
f 50/97/97 21/37/37 104/98/98
f 53/93/93 199/17/17 54/79/79
f 54/79/79 298/99/99 55/90/90
f 60/21/21 7/1/1 59/28/28
f 59/28/28 12/3/3 80/100/100
f 58/42/42 17/46/46 57/58/58
f 57/58/58 24/48/48 99/101/101
f 60/21/21 3/20/20 61/81/81
f 61/81/81 39/74/74 62/92/92
f 199/17/17 53/93/93 63/18/18
f 53/93/93 64/102/102 63/18/18
f 52/94/94 85/95/95 64/102/102
f 51/96/96 66/103/103 65/39/39
f 50/97/97 104/98/98 66/103/103
f 71/104/104 14/30/30 72/105/105
f 72/105/105 139/34/34 140/106/106
f 73/107/107 16/36/36 74/108/108
f 76/109/109 65/39/39 306/110/110
f 70/111/111 13/41/41 71/104/104
f 68/112/112 33/47/47 69/113/113
f 67/114/114 22/49/49 113/115/115
f 74/108/108 16/36/36 75/116/116
f 69/113/113 58/42/42 70/111/111
f 75/116/116 51/96/96 76/109/109
f 81/29/29 72/105/105 82/22/22
f 82/22/22 140/106/106 141/117/117
f 83/24/24 74/108/108 84/25/25
f 86/26/26 76/109/109 211/27/27
f 80/100/100 71/104/104 81/29/29
f 78/43/43 68/112/112 79/44/44
f 77/45/45 67/114/114 112/118/118
f 84/25/25 74/108/108 85/95/95
f 79/44/44 70/111/111 80/100/100
f 85/95/95 75/116/116 86/26/26
f 87/119/119 128/120/120 107/5/5
f 88/6/6 130/121/121 89/8/8
f 89/8/8 131/122/122 90/123/123
f 92/50/50 134/124/124 93/62/62
f 93/62/62 135/125/125 95/126/126
f 92/50/50 22/49/49 91/127/127
f 91/127/127 67/114/114 90/123/123
f 100/59/59 161/128/128 101/52/52
f 101/52/52 160/129/129 137/130/130
f 102/54/54 158/131/131 103/55/55
f 105/56/56 156/132/132 254/57/57
f 99/101/101 162/133/133 100/59/59
f 97/70/70 164/134/134 98/61/61
f 95/126/126 169/135/135 96/63/63
f 96/63/63 168/136/136 116/137/137
f 103/55/55 158/131/131 104/98/98
f 98/61/61 163/138/138 99/101/101
f 104/98/98 157/139/139 105/56/56
f 106/71/71 87/119/119 107/5/5
f 110/72/72 1/7/7 111/140/140
f 111/140/140 77/45/45 112/118/118
f 114/141/141 22/49/49 115/142/142
f 115/142/142 23/51/51 116/137/137
f 110/72/72 148/143/143 109/73/73
f 109/73/73 147/144/144 108/84/84
f 114/141/141 151/145/145 113/115/115
f 113/115/115 150/146/146 112/118/118
f 117/147/147 155/148/148 168/136/136
f 120/149/149 35/64/64 119/150/150
f 119/150/150 41/65/65 118/151/151
f 124/68/68 68/112/112 123/152/152
f 123/152/152 78/43/43 122/67/67
f 127/153/153 31/154/154 166/155/155
f 134/124/124 92/50/50 133/156/156
f 133/156/156 91/127/127 132/157/157
f 130/121/121 88/6/6 129/158/158
f 143/13/13 4/9/9 142/23/23
f 142/23/23 9/11/11 141/117/117
f 139/34/34 14/30/30 138/53/53
f 138/53/53 19/32/32 137/130/130
f 143/13/13 5/12/12 144/76/76
f 144/76/76 43/88/88 145/87/87
f 139/34/34 15/33/33 140/106/106
f 140/106/106 73/107/107 141/117/117
f 136/159/159 27/160/160 160/129/129
f 110/72/72 111/140/140 148/143/143
f 111/140/140 112/118/118 149/161/161
f 114/141/141 153/162/162 152/163/163
f 115/142/142 154/164/164 153/162/162
f 148/143/143 120/149/149 147/144/144
f 147/144/144 119/150/150 146/165/165
f 152/163/163 123/152/152 151/145/145
f 151/145/145 122/67/67 150/146/146
f 155/148/148 127/153/153 167/166/166
f 149/161/161 120/149/149 148/143/143
f 150/146/146 121/66/66 149/161/161
f 153/162/162 125/69/69 152/163/163
f 154/164/164 126/167/167 153/162/162
f 162/133/133 26/168/168 161/128/128
f 161/128/128 136/159/159 160/129/129
f 159/169/169 28/170/170 158/131/131
f 163/138/138 25/171/171 162/133/133
f 165/172/172 30/173/173 164/134/134
f 170/174/174 29/175/175 169/135/135
f 169/135/135 117/147/147 168/136/136
f 158/131/131 28/170/170 157/139/139
f 164/134/134 56/176/176 163/138/138
f 157/139/139 49/177/177 156/132/132
f 167/166/166 116/137/137 168/136/136
f 165/172/172 126/167/167 166/155/155
f 159/169/169 137/130/130 160/129/129
f 166/155/155 154/164/164 167/166/166
f 171/178/178 173/179/179 172/180/180
f 175/181/181 177/182/182 176/183/183
f 179/184/184 178/185/185 175/181/181
f 189/186/186 191/187/187 190/188/188
f 196/189/189 195/190/190 194/191/191
f 197/192/192 196/189/189 193/193/193
f 202/194/19 201/195/194 200/196/195
f 191/187/187 204/197/196 203/198/197
f 206/199/198 205/200/199 191/187/187
f 208/201/200 207/202/201 195/190/190
f 209/203/202 208/201/200 196/189/189
f 202/194/19 210/204/203 201/195/194
f 205/200/199 212/205/204 204/197/196
f 213/206/205 215/207/206 214/208/207
f 220/209/208 219/210/209 218/211/210
f 221/212/211 220/209/208 217/213/212
f 226/214/40 225/215/213 224/216/214
f 215/207/206 228/217/215 227/218/216
f 174/219/217 229/220/218 173/179/179
f 232/221/219 231/222/220 180/223/221
f 236/224/222 235/225/223 234/226/224
f 240/227/225 239/228/226 238/229/227
f 243/230/228 245/231/229 244/232/230
f 249/233/231 248/234/232 215/207/206
f 251/235/233 250/236/234 219/210/209
f 252/237/235 251/235/233 220/209/208
f 226/214/40 253/238/236 225/215/213
f 248/234/232 255/239/237 228/217/215
f 257/240/238 256/241/239 235/225/223
f 259/242/240 258/243/241 239/228/226
f 271/244/242 270/245/243 171/178/178
f 172/180/180 273/246/244 272/247/245
f 173/179/179 274/248/246 273/246/244
f 235/225/223 276/249/247 275/250/248
f 256/241/239 277/251/249 276/249/247
f 176/183/183 279/252/250 175/181/181
f 281/253/251 189/186/186 190/188/188
f 283/254/252 194/191/191 189/186/186
f 284/255/253 197/192/192 193/193/193
f 287/256/254 286/257/255 197/192/192
f 270/245/243 203/198/197 171/178/178
f 270/245/243 290/258/256 289/259/257
f 241/260/258 280/261/259 176/183/183
f 181/262/260 282/263/261 281/253/251
f 183/264/262 283/254/252 282/263/261
f 184/265/263 285/266/264 284/255/253
f 186/267/265 287/256/254 285/266/264
f 289/259/257 288/268/266 270/245/243
f 292/269/267 198/270/268 197/192/192
f 293/271/269 209/203/202 198/270/268
f 295/272/270 222/273/271 221/212/211
f 296/274/272 252/237/235 222/273/271
f 287/256/254 298/275/99 199/276/17
f 186/267/265 187/277/273 298/275/99
f 204/197/196 174/219/217 171/178/178
f 212/205/204 230/278/274 174/219/217
f 228/217/215 236/224/222 233/279/275
f 255/239/237 257/240/238 236/224/222
f 288/268/266 281/253/251 190/188/188
f 188/280/276 181/262/260 281/253/251
f 199/276/17 200/196/195 286/257/255
f 286/257/255 201/195/194 292/269/267
f 201/195/194 210/204/203 293/271/269
f 294/281/277 225/215/213 295/272/270
f 225/215/213 253/238/236 296/274/272
f 300/282/278 213/206/205 214/208/207
f 301/283/279 218/211/210 213/206/205
f 303/284/280 221/212/211 217/213/212
f 306/285/110 223/286/38 224/216/214
f 307/287/281 214/208/207 227/218/216
f 309/288/282 233/279/275 234/226/224
f 314/289/283 313/290/284 237/291/285
f 315/292/286 294/281/277 221/212/211
f 309/288/282 227/218/216 233/279/275
f 305/293/287 224/216/214 294/281/277
f 205/200/199 301/283/279 300/282/278
f 206/199/198 302/294/288 301/283/279
f 208/201/200 304/295/289 303/284/280
f 211/296/27 306/285/110 305/293/287
f 212/205/204 300/282/278 307/287/281
f 230/278/274 309/288/282 308/297/290
f 317/298/291 314/289/283 312/299/292
f 293/271/269 315/292/286 304/295/289
f 230/278/274 307/287/281 309/288/282
f 210/204/203 305/293/287 315/292/286
f 177/182/182 319/300/293 318/301/294
f 180/223/221 321/302/295 320/303/296
f 231/222/220 316/304/297 321/302/295
f 322/305/298 312/299/292 237/291/285
f 231/222/220 232/221/219 312/299/292
f 248/234/232 324/306/299 323/307/300
f 249/233/231 325/308/301 324/306/299
f 251/235/233 327/309/302 326/310/303
f 254/311/57 329/312/304 328/313/305
f 255/239/237 323/307/300 330/314/306
f 256/241/239 332/315/307 331/316/308
f 258/243/241 334/317/309 333/318/310
f 259/242/240 335/319/311 334/317/309
f 296/274/272 337/320/312 327/309/302
f 257/240/238 330/314/306 332/315/307
f 253/238/236 328/313/305 337/320/312
f 176/183/183 242/321/313 241/260/258
f 246/322/314 320/303/296 247/323/315
f 279/252/250 179/184/184 175/181/181
f 338/324/316 232/221/219 179/184/184
f 339/325/317 240/227/225 237/291/285
f 336/326/318 259/242/240 240/227/225
f 280/261/259 342/327/319 341/328/320
f 291/329/321 343/330/322 342/327/319
f 313/290/284 345/331/323 344/332/324
f 314/289/283 346/333/291 345/331/323
f 335/319/311 348/334/325 347/335/326
f 349/336/327 271/244/242 172/180/180
f 350/337/328 290/258/256 271/244/242
f 275/250/248 308/297/290 234/226/224
f 351/338/329 229/220/218 308/297/290
f 352/339/330 331/316/308 267/340/331
f 311/341/332 322/305/298 238/229/227
f 316/304/297 231/222/220 322/305/298
f 319/300/293 246/322/314 243/230/228
f 319/300/293 177/182/182 178/185/185
f 195/190/190 192/342/333 189/186/186
f 207/202/201 206/199/198 192/342/333
f 219/210/209 216/343/334 213/206/205
f 250/236/234 249/233/231 216/343/334
f 283/254/252 284/255/253 193/193/193
f 283/254/252 184/265/263 284/255/253
f 302/294/288 303/284/280 217/213/212
f 207/202/201 208/201/200 303/284/280
f 325/308/301 326/310/303 262/344/335
f 341/328/320 353/345/336 338/324/316
f 353/345/336 346/333/291 317/298/291
f 313/290/284 354/346/337 339/325/317
f 339/325/317 355/347/338 336/326/318
f 342/327/319 349/336/327 272/247/245
f 343/330/322 350/337/328 349/336/327
f 344/332/324 351/338/329 275/250/248
f 345/331/323 274/248/246 351/338/329
f 348/334/325 352/339/330 278/348/339
f 353/345/336 272/247/245 273/246/244
f 346/333/291 273/246/244 274/248/246
f 344/332/324 275/250/248 276/249/247
f 354/346/337 276/249/247 277/251/249
f 323/307/300 260/349/340 261/350/341
f 324/306/299 263/351/342 260/349/340
f 326/310/303 264/352/343 262/344/335
f 330/314/306 261/350/341 265/353/344
f 331/316/308 266/354/345 267/340/331
f 333/318/310 268/355/346 269/356/347
f 334/317/309 340/357/348 268/355/346
f 337/320/312 297/358/349 264/352/343
f 332/315/307 265/353/344 266/354/345
f 348/334/325 336/326/318 355/347/338
f 331/316/308 277/251/249 256/241/239
f 326/310/303 250/236/234 251/235/233
f 352/339/330 355/347/338 277/251/249
f 7/1/1 35/64/64 34/2/2
f 2/4/4 106/71/71 107/5/5
f 1/7/7 2/4/4 88/6/6
f 4/9/9 3/20/20 8/10/10
f 143/13/13 142/23/23 10/14/14
f 6/15/15 5/12/12 10/14/14
f 63/18/18 64/102/102 202/19/19
f 60/21/21 59/28/28 8/10/10
f 8/10/10 81/29/29 82/22/22
f 142/23/23 141/117/117 83/24/24
f 10/14/14 83/24/24 84/25/25
f 202/19/19 64/102/102 86/26/26
f 59/28/28 80/100/100 81/29/29
f 14/30/30 13/41/41 18/31/31
f 139/34/34 138/53/53 20/35/35
f 16/36/36 15/33/33 20/35/35
f 65/39/39 66/103/103 226/40/40
f 58/42/42 57/58/58 18/31/31
f 12/3/3 34/2/2 78/43/43
f 89/8/8 90/123/123 77/45/45
f 33/47/47 32/60/60 24/48/48
f 92/50/50 93/62/62 23/51/51
f 18/31/31 100/59/59 101/52/52
f 138/53/53 137/130/130 102/54/54
f 20/35/35 102/54/54 103/55/55
f 226/40/40 66/103/103 105/56/56
f 57/58/58 99/101/101 100/59/59
f 32/60/60 97/70/70 98/61/61
f 93/62/62 95/126/126 96/63/63
f 7/1/1 40/80/80 41/65/65
f 35/64/64 120/149/149 121/66/66
f 34/2/2 121/66/66 122/67/67
f 124/68/68 125/69/69 32/60/60
f 125/69/69 126/167/167 97/70/70
f 106/71/71 2/4/4 110/72/72
f 39/74/74 3/20/20 4/9/9
f 4/9/9 143/13/13 144/76/76
f 37/77/77 5/12/12 6/15/15
f 6/15/15 53/93/93 54/79/79
f 40/80/80 7/1/1 60/21/21
f 40/80/80 46/91/91 47/82/82
f 48/83/83 106/71/71 109/73/73
f 45/85/85 39/74/74 38/75/75
f 38/75/75 144/76/76 145/87/87
f 43/88/88 37/77/77 36/78/78
f 36/78/78 54/79/79 55/90/90
f 46/91/91 40/80/80 61/81/81
f 6/15/15 11/16/16 52/94/94
f 11/16/16 84/25/25 85/95/95
f 16/36/36 21/37/37 50/97/97
f 21/37/37 103/55/55 104/98/98
f 199/17/17 298/99/99 54/79/79
f 298/99/99 187/359/273 55/90/90
f 7/1/1 12/3/3 59/28/28
f 12/3/3 79/44/44 80/100/100
f 17/46/46 24/48/48 57/58/58
f 24/48/48 98/61/61 99/101/101
f 3/20/20 39/74/74 61/81/81
f 39/74/74 45/85/85 62/92/92
f 53/93/93 52/94/94 64/102/102
f 85/95/95 86/26/26 64/102/102
f 51/96/96 50/97/97 66/103/103
f 104/98/98 105/56/56 66/103/103
f 71/104/104 13/41/41 14/30/30
f 72/105/105 14/30/30 139/34/34
f 73/107/107 15/33/33 16/36/36
f 65/39/39 223/38/38 306/110/110
f 70/111/111 58/42/42 13/41/41
f 33/47/47 17/46/46 69/113/113
f 22/49/49 114/141/141 113/115/115
f 16/36/36 51/96/96 75/116/116
f 69/113/113 17/46/46 58/42/42
f 51/96/96 65/39/39 76/109/109
f 81/29/29 71/104/104 72/105/105
f 82/22/22 72/105/105 140/106/106
f 83/24/24 73/107/107 74/108/108
f 76/109/109 306/110/110 211/27/27
f 80/100/100 70/111/111 71/104/104
f 68/112/112 69/113/113 79/44/44
f 67/114/114 113/115/115 112/118/118
f 74/108/108 75/116/116 85/95/95
f 79/44/44 69/113/113 70/111/111
f 75/116/116 76/109/109 86/26/26
f 128/120/120 129/158/158 107/5/5
f 130/121/121 131/122/122 89/8/8
f 131/122/122 132/157/157 90/123/123
f 134/124/124 135/125/125 93/62/62
f 22/49/49 67/114/114 91/127/127
f 67/114/114 77/45/45 90/123/123
f 100/59/59 162/133/133 161/128/128
f 101/52/52 161/128/128 160/129/129
f 102/54/54 159/169/169 158/131/131
f 156/132/132 329/360/304 254/57/57
f 99/101/101 163/138/138 162/133/133
f 97/70/70 165/172/172 164/134/134
f 95/126/126 170/174/174 169/135/135
f 96/63/63 169/135/135 168/136/136
f 158/131/131 157/139/139 104/98/98
f 98/61/61 164/134/134 163/138/138
f 157/139/139 156/132/132 105/56/56
f 106/71/71 48/83/83 87/119/119
f 110/72/72 2/4/4 1/7/7
f 111/140/140 1/7/7 77/45/45
f 22/49/49 23/51/51 115/142/142
f 23/51/51 96/63/63 116/137/137
f 148/143/143 147/144/144 109/73/73
f 147/144/144 146/165/165 108/84/84
f 114/141/141 152/163/163 151/145/145
f 113/115/115 151/145/145 150/146/146
f 155/148/148 167/166/166 168/136/136
f 35/64/64 41/65/65 119/150/150
f 41/65/65 47/82/82 118/151/151
f 124/68/68 33/47/47 68/112/112
f 123/152/152 68/112/112 78/43/43
f 31/154/154 165/172/172 166/155/155
f 92/50/50 91/127/127 133/156/156
f 91/127/127 90/123/123 132/157/157
f 88/6/6 107/5/5 129/158/158
f 4/9/9 9/11/11 142/23/23
f 9/11/11 82/22/22 141/117/117
f 14/30/30 19/32/32 138/53/53
f 19/32/32 101/52/52 137/130/130
f 5/12/12 37/77/77 144/76/76
f 144/76/76 37/77/77 43/88/88
f 15/33/33 73/107/107 140/106/106
f 73/107/107 83/24/24 141/117/117
f 27/160/160 159/169/169 160/129/129
f 111/140/140 149/161/161 148/143/143
f 112/118/118 150/146/146 149/161/161
f 114/141/141 115/142/142 153/162/162
f 115/142/142 116/137/137 154/164/164
f 120/149/149 119/150/150 147/144/144
f 119/150/150 118/151/151 146/165/165
f 152/163/163 124/68/68 123/152/152
f 151/145/145 123/152/152 122/67/67
f 127/153/153 166/155/155 167/166/166
f 149/161/161 121/66/66 120/149/149
f 150/146/146 122/67/67 121/66/66
f 125/69/69 124/68/68 152/163/163
f 126/167/167 125/69/69 153/162/162
f 162/133/133 25/171/171 26/168/168
f 161/128/128 26/168/168 136/159/159
f 159/169/169 27/160/160 28/170/170
f 163/138/138 56/176/176 25/171/171
f 165/172/172 31/154/154 30/173/173
f 170/174/174 94/361/350 29/175/175
f 169/135/135 29/175/175 117/147/147
f 28/170/170 49/177/177 157/139/139
f 164/134/134 30/173/173 56/176/176
f 167/166/166 154/164/164 116/137/137
f 165/172/172 97/70/70 126/167/167
f 159/169/169 102/54/54 137/130/130
f 166/155/155 126/167/167 154/164/164
f 171/178/178 174/219/217 173/179/179
f 175/181/181 178/185/185 177/182/182
f 179/184/184 180/223/221 178/185/185
f 189/186/186 192/342/333 191/187/187
f 194/191/191 193/193/193 196/189/189
f 197/192/192 198/270/268 196/189/189
f 200/196/195 199/276/17 202/194/19
f 203/198/197 190/188/188 191/187/187
f 191/187/187 192/342/333 206/199/198
f 195/190/190 196/189/189 208/201/200
f 196/189/189 198/270/268 209/203/202
f 202/194/19 211/296/27 210/204/203
f 204/197/196 191/187/187 205/200/199
f 213/206/205 216/343/334 215/207/206
f 218/211/210 217/213/212 220/209/208
f 221/212/211 222/273/271 220/209/208
f 224/216/214 223/286/38 226/214/40
f 227/218/216 214/208/207 215/207/206
f 174/219/217 230/278/274 229/220/218
f 180/223/221 179/184/184 232/221/219
f 234/226/224 233/279/275 236/224/222
f 238/229/227 237/291/285 240/227/225
f 243/230/228 246/322/314 245/231/229
f 215/207/206 216/343/334 249/233/231
f 219/210/209 220/209/208 251/235/233
f 220/209/208 222/273/271 252/237/235
f 226/214/40 254/311/57 253/238/236
f 228/217/215 215/207/206 248/234/232
f 235/225/223 236/224/222 257/240/238
f 239/228/226 240/227/225 259/242/240
f 171/178/178 172/180/180 271/244/242
f 172/180/180 173/179/179 273/246/244
f 173/179/179 229/220/218 274/248/246
f 275/250/248 234/226/224 235/225/223
f 276/249/247 235/225/223 256/241/239
f 176/183/183 280/261/259 279/252/250
f 281/253/251 282/263/261 189/186/186
f 189/186/186 282/263/261 283/254/252
f 284/255/253 285/266/264 197/192/192
f 197/192/192 285/266/264 287/256/254
f 270/245/243 288/268/266 203/198/197
f 270/245/243 271/244/242 290/258/256
f 241/260/258 291/329/321 280/261/259
f 181/262/260 182/362/351 282/263/261
f 282/263/261 182/362/351 183/264/262
f 184/265/263 185/363/352 285/266/264
f 285/266/264 185/363/352 186/267/265
f 289/259/257 188/280/276 288/268/266
f 197/192/192 286/257/255 292/269/267
f 198/270/268 292/269/267 293/271/269
f 221/212/211 294/281/277 295/272/270
f 222/273/271 295/272/270 296/274/272
f 199/276/17 286/257/255 287/256/254
f 298/275/99 287/256/254 186/267/265
f 171/178/178 203/198/197 204/197/196
f 174/219/217 204/197/196 212/205/204
f 233/279/275 227/218/216 228/217/215
f 236/224/222 228/217/215 255/239/237
f 190/188/188 203/198/197 288/268/266
f 281/253/251 288/268/266 188/280/276
f 286/257/255 200/196/195 201/195/194
f 293/271/269 292/269/267 201/195/194
f 294/281/277 224/216/214 225/215/213
f 296/274/272 295/272/270 225/215/213
f 300/282/278 301/283/279 213/206/205
f 301/283/279 302/294/288 218/211/210
f 303/284/280 304/295/289 221/212/211
f 224/216/214 305/293/287 306/285/110
f 307/287/281 300/282/278 214/208/207
f 234/226/224 308/297/290 309/288/282
f 237/291/285 312/299/292 314/289/283
f 221/212/211 304/295/289 315/292/286
f 309/288/282 307/287/281 227/218/216
f 294/281/277 315/292/286 305/293/287
f 205/200/199 206/199/198 301/283/279
f 206/199/198 207/202/201 302/294/288
f 208/201/200 209/203/202 304/295/289
f 305/293/287 210/204/203 211/296/27
f 212/205/204 205/200/199 300/282/278
f 308/297/290 229/220/218 230/278/274
f 312/299/292 232/221/219 317/298/291
f 304/295/289 209/203/202 293/271/269
f 230/278/274 212/205/204 307/287/281
f 315/292/286 293/271/269 210/204/203
f 318/301/294 242/321/313 177/182/182
f 320/303/296 178/185/185 180/223/221
f 321/302/295 180/223/221 231/222/220
f 310/364/353 238/229/227 239/228/226
f 237/291/285 238/229/227 322/305/298
f 312/299/292 322/305/298 231/222/220
f 248/234/232 249/233/231 324/306/299
f 249/233/231 250/236/234 325/308/301
f 251/235/233 252/237/235 327/309/302
f 328/313/305 253/238/236 254/311/57
f 255/239/237 248/234/232 323/307/300
f 256/241/239 257/240/238 332/315/307
f 258/243/241 259/242/240 334/317/309
f 259/242/240 336/326/318 335/319/311
f 327/309/302 252/237/235 296/274/272
f 257/240/238 255/239/237 330/314/306
f 337/320/312 296/274/272 253/238/236
f 176/183/183 177/182/182 242/321/313
f 246/322/314 319/300/293 320/303/296
f 279/252/250 338/324/316 179/184/184
f 338/324/316 317/298/291 232/221/219
f 237/291/285 313/290/284 339/325/317
f 240/227/225 339/325/317 336/326/318
f 341/328/320 279/252/250 280/261/259
f 342/327/319 280/261/259 291/329/321
f 313/290/284 314/289/283 345/331/323
f 314/289/283 317/298/291 346/333/291
f 347/335/326 340/357/348 335/319/311
f 172/180/180 272/247/245 349/336/327
f 271/244/242 349/336/327 350/337/328
f 275/250/248 351/338/329 308/297/290
f 351/338/329 274/248/246 229/220/218
f 267/340/331 278/348/339 352/339/330
f 238/229/227 310/364/353 311/341/332
f 322/305/298 311/341/332 316/304/297
f 243/230/228 318/301/294 319/300/293
f 247/323/315 320/303/296 321/302/295
f 178/185/185 320/303/296 319/300/293
f 189/186/186 194/191/191 195/190/190
f 192/342/333 195/190/190 207/202/201
f 213/206/205 218/211/210 219/210/209
f 216/343/334 219/210/209 250/236/234
f 193/193/193 194/191/191 283/254/252
f 283/254/252 183/264/262 184/265/263
f 217/213/212 218/211/210 302/294/288
f 303/284/280 302/294/288 207/202/201
f 262/344/335 263/351/342 325/308/301
f 338/324/316 279/252/250 341/328/320
f 317/298/291 338/324/316 353/345/336
f 313/290/284 344/332/324 354/346/337
f 339/325/317 354/346/337 355/347/338
f 272/247/245 341/328/320 342/327/319
f 349/336/327 342/327/319 343/330/322
f 344/332/324 345/331/323 351/338/329
f 345/331/323 346/333/291 274/248/246
f 278/348/339 347/335/326 348/334/325
f 353/345/336 341/328/320 272/247/245
f 346/333/291 353/345/336 273/246/244
f 276/249/247 354/346/337 344/332/324
f 277/251/249 355/347/338 354/346/337
f 323/307/300 324/306/299 260/349/340
f 324/306/299 325/308/301 263/351/342
f 326/310/303 327/309/302 264/352/343
f 330/314/306 323/307/300 261/350/341
f 331/316/308 332/315/307 266/354/345
f 333/318/310 334/317/309 268/355/346
f 334/317/309 335/319/311 340/357/348
f 264/352/343 327/309/302 337/320/312
f 332/315/307 330/314/306 265/353/344
f 297/358/349 337/320/312 328/313/305
f 348/334/325 335/319/311 336/326/318
f 331/316/308 352/339/330 277/251/249
f 326/310/303 325/308/301 250/236/234
f 352/339/330 348/334/325 355/347/338
l 299 244
