<?xml version="1.0" encoding="utf-8"?>
<COLLADA xmlns="http://www.collada.org/2005/11/COLLADASchema" version="1.4.1" xmlns:xsi="http://www.w3.org/2001/XMLSchema-instance">
  <asset>
    <contributor>
      <author>Blender User</author>
      <authoring_tool>Blender 4.5.3 LTS commit date:2025-09-08, commit time:12:46, hash:67807e1800cc</authoring_tool>
    </contributor>
    <created>2025-10-25T10:14:39</created>
    <modified>2025-10-25T10:14:39</modified>
    <unit name="meter" meter="1"/>
    <up_axis>Z_UP</up_axis>
  </asset>
  <library_effects>
    <effect id="Material__25-effect">
      <profile_COMMON>
        <technique sid="common">
          <lambert>
            <emission>
              <color sid="emission">0 0 0 1</color>
            </emission>
            <diffuse>
              <color sid="diffuse">0.6039216 0.6039216 0.6039216 1</color>
            </diffuse>
            <index_of_refraction>
              <float sid="ior">1.5</float>
            </index_of_refraction>
          </lambert>
        </technique>
      </profile_COMMON>
    </effect>
    <effect id="Material_001-effect">
      <profile_COMMON>
        <newparam sid="Carro-423097331_png-surface">
          <surface type="2D">
            <init_from>Carro-423097331_png</init_from>
          </surface>
        </newparam>
        <newparam sid="Carro-423097331_png-sampler">
          <sampler2D>
            <source>Carro-423097331_png-surface</source>
          </sampler2D>
        </newparam>
        <technique sid="common">
          <lambert>
            <emission>
              <color sid="emission">0 0 0 1</color>
            </emission>
            <diffuse>
              <texture texture="Carro-423097331_png-sampler" texcoord="UVChannel_1"/>
            </diffuse>
            <index_of_refraction>
              <float sid="ior">1.5</float>
            </index_of_refraction>
          </lambert>
        </technique>
      </profile_COMMON>
    </effect>
    <effect id="Material_002-effect">
      <profile_COMMON>
        <newparam sid="escudo_fi_color_png-surface">
          <surface type="2D">
            <init_from>escudo_fi_color_png</init_from>
          </surface>
        </newparam>
        <newparam sid="escudo_fi_color_png-sampler">
          <sampler2D>
            <source>escudo_fi_color_png-surface</source>
          </sampler2D>
        </newparam>
        <technique sid="common">
          <lambert>
            <emission>
              <color sid="emission">0 0 0 1</color>
            </emission>
            <diffuse>
              <texture texture="escudo_fi_color_png-sampler" texcoord="UVChannel_1"/>
            </diffuse>
            <index_of_refraction>
              <float sid="ior">1.5</float>
            </index_of_refraction>
          </lambert>
        </technique>
      </profile_COMMON>
    </effect>
  </library_effects>
  <library_images>
    <image id="Carro-423097331_png" name="Carro-423097331_png">
      <init_from>Carro-423097331.png</init_from>
    </image>
    <image id="escudo_fi_color_png" name="escudo_fi_color_png">
      <init_from>escudo_fi_color.png</init_from>
    </image>
  </library_images>
  <library_materials>
    <material id="Material__25-material" name="Material #25">
      <instance_effect url="#Material__25-effect"/>
    </material>
    <material id="Material_001-material" name="Material.001">
      <instance_effect url="#Material_001-effect"/>
    </material>
    <material id="Material_002-material" name="Material.002">
      <instance_effect url="#Material_002-effect"/>
    </material>
  </library_materials>
  <library_geometries>
    <geometry id="Mesh_005-mesh" name="Mesh.005">
      <mesh>
        <source id="Mesh_005-mesh-positions">
          <float_array id="Mesh_005-mesh-positions-array" count="603">-42.66433 -0.8798373 -6.613447 -5.96875 8.684491 -6.613447 -5.919215 7.795578 1.675645 -5.79742 8.297254 0.9344037 -42.49733 -1.274909 0.006767511 -42.66355 -0.8818355 -0.7677962 -26.09637 6.179141 -2.757014 -26.10578 6.200494 -2.265299 -24.85469 6.703929 -2.290611 -24.87586 6.732459 -2.627193 -26.16428 6.192403 -6.613447 -24.87727 6.744045 -6.613447 -25.09283 6.748034 -6.613447 -25.05451 6.736189 -2.634029 -25.78555 6.834808 -2.638425 -25.78917 6.843462 -2.308465 -25.7135 6.93806 -2.634638 -25.71712 6.946715 -2.304677 -24.99718 7.249703 -2.284678 -25.01835 7.278232 -2.621261 -25.79002 6.838953 -2.070065 -25.04499 7.141942 -2.050066 -24.99803 7.245194 -2.046279 -25.71797 6.942206 -2.066278 -25.37261 7.286384 -2.627955 -25.36696 7.275195 -2.29477 -25.36432 7.272102 -2.056277 -25.32139 7.169946 -2.059992 -25.3112 7.178256 -2.29814 -42.66383 -0.8811044 -2.906826 -42.66376 -0.8812863 -2.374339 -5.839342 8.392004 -0.9124126 -5.855714 8.429009 -1.63372 -5.929862 8.596596 -4.90026 -24.87679 6.740059 -5.242048 -25.07965 6.743959 -5.2444 -26.14092 6.187841 -5.28671 -42.66416 -0.8802734 -5.338251 -24.52876 5.488772 0.9983208 -24.67666 6.270432 0.3332006 -24.73576 6.738714 -0.4496974 -25.70907 4.989334 0.9552308 -25.86734 5.766293 0.3113901 -25.9336 6.229549 -0.4709511 -21.11564 8.13147 -5.011385 -22.30634 7.830955 -4.997776 -19.90564 8.341149 -5.025887 -21.07487 8.106035 -1.953251 -19.86517 8.311899 -1.967774 -22.26508 7.807402 -1.939636 -21.02537 7.659945 0.3691412 -22.22041 7.400301 0.2728206 -19.81497 7.850294 0.4507526 -20.89566 6.846202 1.134662 -19.70976 7.049252 1.19424 -22.05972 6.565238 1.077676 -21.05949 8.097531 -0.3770744 -22.24976 7.803613 -0.4330532 -19.85229 8.299881 -0.3172134 -21.06692 8.099059 -1.382591 -22.25655 7.801067 -1.368978 -19.85759 8.30284 -1.397123 -21.13593 8.143692 -6.613447 -19.92642 8.359333 -6.613447 -22.32572 7.837688 -6.613447 -5.817417 8.342451 0.05345016 -19.85482 8.301293 -0.8323433 -21.06303 8.098259 -0.8567177 -22.253 7.802399 -0.8795006 -24.79249 6.722121 -1.327835 -26.01573 6.21569 -1.326877 -42.66365 -0.8815736 -1.534136 -5.895398 8.518702 -3.38198 -19.88683 8.327553 -3.604484 -21.09669 8.119648 -3.589972 -22.28717 7.820007 -3.57636 -24.87636 6.736526 -4.02667 -25.06796 6.740348 -4.031106 -26.12022 6.183797 -4.110914 -42.66401 -0.8806596 -4.208131 -5.941751 8.623466 -5.42399 -19.91199 8.346708 -5.511211 -21.12184 8.135207 -5.501143 -22.31227 7.833014 -5.491694 -24.87693 6.741277 -5.661291 -25.08368 6.745205 -5.662924 -26.14806 6.189236 -5.6923 -42.66421 -0.8801401 -5.728085 -5.959387 8.663328 -6.200958 -19.92142 8.354955 -6.231205 -21.13105 8.140749 -6.227714 -22.32106 7.836067 -6.224437 -24.87715 6.743085 -6.283251 -25.08965 6.747053 -6.283817 -26.15866 6.191305 -6.294005 -42.66429 -0.8799424 -6.306415 -42.66367 -0.8815234 -1.680761 -26.03145 6.213038 -1.490642 -24.80335 6.718946 -1.495851 -22.25362 7.802166 -0.9649201 -21.06371 8.098399 -0.9484886 -19.8553 8.301563 -0.9309039 -5.821243 8.351099 -0.115104 -25.71358 6.942157 -6.613447 -42.66355 -0.8818359 -12.4591 -42.66365 -0.8815727 -11.69276 -5.855713 8.429009 -11.59317 -5.895397 8.518704 -9.844914 -19.88683 8.327553 -9.62241 -19.86517 8.311898 -11.25912 -24.99719 7.249702 -10.94221 -25.01835 7.278233 -10.60563 -25.37261 7.286385 -10.59894 -25.36696 7.275196 -10.93212 -19.70976 7.049252 -14.42113 -5.919216 7.795578 -14.90254 -19.81497 7.850292 -13.67765 -42.19407 -1.986212 -13.5803 -25.70907 4.989334 -14.18212 -25.86734 5.766293 -13.53828 -42.49733 -1.27491 -13.23366 -22.26508 7.8074 -11.28726 -22.28716 7.820007 -9.650534 -24.87636 6.736526 -9.200224 -24.87586 6.73246 -10.5997 -25.05451 6.736187 -10.59286 -25.06796 6.740349 -9.195788 -26.15866 6.191303 -6.932888 -25.08965 6.747051 -6.943076 -26.09637 6.179142 -10.46988 -26.10578 6.200493 -10.96159 -25.78917 6.843464 -10.91843 -24.85468 6.70393 -10.93628 -25.71713 6.946716 -10.92222 -25.7135 6.938061 -10.59226 -24.99802 7.245193 -11.18061 -25.36433 7.272102 -11.17062 -25.78563 6.838899 -6.613447 -25.01843 7.282333 -6.613447 -25.39922 7.277954 -6.613447 -25.79002 6.838955 -11.15683 -25.71796 6.942207 -11.16061 -25.46531 7.207364 -6.613447 -22.05972 6.565239 -14.30457 -24.52876 5.488773 -14.22521 -5.959389 8.663327 -7.025936 -26.12022 6.183796 -9.11598 -42.66401 -0.8806591 -9.018763 -42.66383 -0.8811035 -10.32007 -42.66376 -0.8812866 -10.85255 -22.25655 7.801067 -11.85792 -19.85759 8.302838 -11.82977 -5.83934 8.392003 -12.31448 -5.929863 8.596596 -8.326634 -5.94175 8.623467 -7.802904 -19.912 8.346707 -7.715682 -19.90564 8.341149 -8.201006 -22.30634 7.830955 -8.229118 -22.31226 7.833012 -7.735199 -24.87693 6.741276 -7.565602 -24.87679 6.740059 -7.984846 -25.08367 6.745205 -7.563969 -25.07964 6.743957 -7.982494 -26.14092 6.187839 -7.940183 -26.14806 6.189236 -7.534594 -42.66421 -0.8801403 -7.498809 -42.66416 -0.8802738 -7.888643 -22.22041 7.400303 -13.49971 -24.67666 6.270431 -13.56009 -24.73576 6.738712 -12.7772 -22.24976 7.803612 -12.79384 -22.253 7.802399 -12.34739 -24.79249 6.722122 -11.89906 -5.79742 8.297253 -14.1613 -19.85229 8.299881 -12.90968 -25.9336 6.229549 -12.75594 -21.09669 8.119648 -9.636921 -21.07487 8.106034 -11.27364 -21.02537 7.659946 -13.59603 -20.89566 6.846203 -14.36155 -21.11564 8.13147 -8.215508 -19.85482 8.301293 -12.39455 -21.06303 8.098259 -12.37018 -21.05949 8.097531 -12.84982 -21.06692 8.099057 -11.8443 -21.12184 8.135205 -7.72575 -22.32105 7.836067 -7.002456 -21.13104 8.140751 -6.999179 -42.66367 -0.8815231 -11.54613 -26.01573 6.215691 -11.90002 -5.817417 8.34245 -13.28034 -22.25362 7.802166 -12.26197 -24.80335 6.718945 -11.73104 -19.8553 8.301564 -12.29599 -21.06371 8.098401 -12.2784 -26.03145 6.213039 -11.73625 -5.821243 8.351098 -13.11179 -19.92142 8.354954 -6.995688 -24.87715 6.743084 -6.943642 -42.66428 -0.8799419 -6.920479 -25.78555 6.834808 -10.58847</float_array>
          <technique_common>
            <accessor source="#Mesh_005-mesh-positions-array" count="201" stride="3">
              <param name="X" type="float"/>
              <param name="Y" type="float"/>
              <param name="Z" type="float"/>
            </accessor>
          </technique_common>
        </source>
        <source id="Mesh_005-mesh-normals">
          <float_array id="Mesh_005-mesh-normals-array" count="654">-0.00883907 0.9986609 0.0509755 -0.0121175 0.998678 0.04995608 -0.08963501 0.995867 0.01464927 -0.1060749 0.6695488 0.7351548 -0.04644924 0.8246207 0.5637758 -0.1082319 0.7737981 0.6241173 -0.3174653 0.9481464 0.01530593 -0.3158645 0.9487417 0.01090973 -0.3927575 0.9184724 0.04637032 -0.4611594 0.8873174 -3.4122e-6 -0.4275665 0.9039239 0.01041114 -0.461956 0.8868695 0.007696449 -0.5486095 0.8359512 -0.01460099 -0.8494355 0.5274896 -0.01464104 -0.8519333 0.5234363 -0.01497465 -0.7599477 0.6499822 -0.001650571 -0.7700144 0.6379078 -0.01232045 -0.02085787 -0.04508429 0.9987654 -0.03085172 -0.02801716 0.9991313 -0.0158149 -0.03958499 0.9990911 -0.8200833 0.5722441 6.22423e-6 0.07116198 0.997327 0.01658618 0.06999307 0.9974393 0.01469486 0.07272809 0.9971685 0.01912105 -0.8201761 0.5720568 0.007904052 -0.7556732 0.6548643 0.01053494 -0.7058371 0.7083432 0.006639838 -0.6835957 0.7294111 0.02562022 -0.6822861 0.7308874 0.01701331 0.004048526 -0.03464019 0.9993917 -0.008453428 0.04042899 0.9991468 -0.02524328 0.05404198 0.9982196 0.00997579 0.02546864 0.9996259 -0.1034681 0.1172575 0.9876968 -0.43016 0.9026971 0.0100193 -0.3923633 0.9198101 5.97905e-4 -0.537404 0.8432615 -0.01035457 -0.3926464 0.9196895 -4.88992e-5 -0.3911117 0.9192904 0.04400956 -0.08715891 0.9961425 0.01017487 -0.01667326 0.9985972 0.0502572 -0.01940935 0.9984984 0.05122697 -0.09497839 0.9954095 0.01179003 -0.3184404 0.9478971 0.009312927 -0.3201401 0.9473369 0.007950842 -0.3913631 0.920231 0.003134489 -0.4288131 0.9033341 0.01033854 -0.4653179 0.885106 0.008164048 -0.4282689 0.9035927 0.01030004 -0.3933963 0.9193689 4.35566e-4 -0.2747997 0.5894919 0.7595949 -0.2382801 0.6444972 0.72653 -0.3148967 0.7038759 0.6367093 -0.2669394 0.5820881 0.7680604 -0.3108249 0.7005024 0.6424052 -0.3829976 0.8857669 0.2621639 -0.3179653 0.9481024 1.20737e-4 -0.3889455 0.9212161 0.00907284 -0.02628022 0.9478535 0.3176209 -0.2676567 0.7509332 0.6037045 -0.3791837 0.8856341 0.2680895 -0.3827778 0.8900455 0.2475886 -0.3467571 0.7976236 0.4935141 -0.09271717 0.9956284 0.01129519 -0.2054241 0.978583 0.01327329 -0.1891689 0.7598858 0.6219234 -0.1743459 0.6611649 0.7297016 -0.2079628 0.9780787 0.01065617 -0.09775263 0.9612386 0.2578079 -0.08466827 0.9964044 0.003103494 -0.2069327 0.9431986 0.2599139 -0.2043781 0.978854 0.008638739 -0.09651547 0.9952495 0.0127846 -0.322628 0.9465259 -1.92558e-6 -0.3215525 0.9468598 0.007772445 -0.2122622 0.9772128 2.48885e-6 -0.3105753 0.9182993 0.2454987 -0.3867672 0.9219218 0.02171158 -0.005368173 0.9987004 0.05068475 -0.3176506 0.9482079 7.85505e-5 -0.3921688 0.9198932 3.66026e-4 -0.08562099 0.9963211 0.003679335 -0.2034921 0.9790728 0.002716958 -0.3884141 0.9214749 0.004310965 -0.3929938 0.919541 5.68741e-4 -0.4690239 0.8831464 0.008325099 -0.2068194 0.9783176 0.01097774 -0.3867263 0.9221627 0.00767076 -0.3852438 0.9225816 0.02074903 -0.3927003 0.9196662 7.379e-4 -0.4636316 0.8859961 0.007532477 -0.0211507 0.9984722 0.05104976 -0.3924608 0.9197629 0.003286659 -0.3936454 0.9192622 4.70922e-4 -0.09841811 0.9950661 0.01254469 -0.2092884 0.9778006 0.0102213 -0.2112123 0.9773889 0.01001435 -0.02221214 0.9997533 -2.5418e-6 -0.3935627 0.9192928 0.003065705 -0.4270645 0.9042212 -2.57696e-6 -0.3938762 0.9191634 4.24167e-4 -0.09978169 0.9950094 -5.927e-7 -0.3184686 0.9479075 0.007017433 -0.2039391 0.9789789 0.003033697 -0.006511867 0.9986578 0.05138307 -0.007291018 0.9986779 0.05088549 -0.08963513 0.995867 -0.01465153 -0.09271734 0.9956284 -0.01129531 -0.01211762 0.998678 -0.04995578 0.05574458 0.9978434 -0.03465944 0.02271747 0.9996278 -0.01510447 0.03382098 0.9990049 -0.02907687 -0.2845915 0.6209041 -0.7304012 -0.3108248 0.7005022 -0.6424055 -0.2658932 0.5791394 -0.7706481 -0.3927577 0.9184721 -0.04637336 -0.3884142 0.9214749 -0.004310369 -0.3158644 0.9487416 -0.01091015 -0.4275667 0.9039239 -0.01041245 -0.5486105 0.8359507 0.01459968 -0.8494476 0.5274701 0.01463669 -0.5374037 0.8432617 0.01035642 0.02818244 0.1649587 0.9858978 -0.8519319 0.5234385 0.01497554 -0.7599536 0.6499754 0.001643896 -0.7764865 0.6301341 0 -0.7700054 0.6379186 0.01232415 -0.01049596 0.9999449 6.60577e-5 -0.01150095 0.9999339 0 0.06890249 0.9965093 -0.04713565 0.06999701 0.9974391 -0.01469331 -0.8201863 0.5720418 -0.007923185 -0.7300102 0.6834278 -0.00342977 -0.7060256 0.7081556 -0.006611108 -0.7300288 0.6834155 -0.00111407 -0.6835985 0.7294085 -0.02561742 -0.7556741 0.6548628 -0.01055341 -0.3923632 0.9198102 -5.98918e-4 -0.3929941 0.919541 -5.68611e-4 -0.4301601 0.9026972 -0.0100193 -0.3926464 0.9196897 4.94082e-5 -0.3174647 0.9481467 -0.01530432 -0.3184677 0.9479078 -0.007016241 -0.3911112 0.9192906 -0.04401266 -0.00883919 0.9986608 -0.05097633 -0.007291018 0.9986779 -0.05088615 -0.08715885 0.9961425 -0.01017189 -0.09497857 0.9954096 -0.0117914 -0.09651607 0.9952493 -0.01278567 -0.01940941 0.9984986 -0.05122387 -0.3913622 0.9202315 -0.003130555 -0.3924601 0.9197632 -0.003285169 -0.3201404 0.9473368 -0.007949054 -0.4653178 0.8851062 -0.008163213 -0.4690243 0.883146 -0.008324205 -0.3933967 0.9193689 -4.33846e-4 -0.3936458 0.9192621 -4.68141e-4 -0.4282691 0.9035927 -0.01029878 -0.3148965 0.7038772 -0.6367081 -0.2676571 0.750934 -0.6037035 -0.238281 0.6444961 -0.7265309 -0.2747998 0.5894938 -0.7595934 -0.3829957 0.8857675 -0.2621647 -0.3179675 0.9481016 -1.12721e-4 -0.3105758 0.9182986 -0.2455 -0.09185051 0.8079729 -0.5820165 -0.09775227 0.9612386 -0.2578079 -0.02628016 0.9478534 -0.3176213 -0.3791826 0.8856344 -0.2680904 -0.3827776 0.8900454 -0.2475895 -0.2054235 0.9785832 -0.01327371 -0.2068192 0.9783176 -0.01097762 -0.2079626 0.9780789 -0.01065433 -0.2069339 0.9431988 -0.2599126 -0.2034919 0.9790728 -0.002735435 -0.08466768 0.9964045 -0.003102481 -0.2043782 0.978854 -0.008635282 -0.2092886 0.9778005 -0.01022052 -0.2112125 0.9773889 -0.01001393 -0.3215525 0.94686 -0.007775723 -0.174346 0.6611644 -0.7297022 -0.1935033 0.7714537 -0.6061482 -0.3889465 0.9212157 -0.009069681 -0.005368053 0.9987004 -0.05068421 -0.386727 0.9221625 -0.00766772 -0.3176515 0.9482076 -6.65082e-5 -0.3867674 0.9219217 -0.02171629 -0.203939 0.9789788 -0.003050446 -0.08562022 0.9963212 -0.003675043 -0.01667332 0.9985972 -0.05025583 -0.3184406 0.9478971 -0.009309649 -0.428813 0.9033342 -0.01033836 -0.4721508 0.8814886 -0.007171511 -0.006511747 0.9986578 -0.05138266 -0.3926993 0.9196667 -7.39307e-4 -0.3852441 0.9225814 -0.02075225 -0.4636305 0.8859966 -0.007532417 -0.09841769 0.9950661 -0.0125463 -0.0211507 0.9984722 -0.0510503 -0.3935623 0.9192929 -0.003069937 -0.3938769 0.9191632 -4.2559e-4 -0.4619553 0.8868698 -0.007699608 -0.3939572 0.9191288 -2.82562e-6 -0.3939568 0.9191291 -2.29709e-6 0.0223661 0.9991992 0.03317695 0.02818095 0.1649588 -0.9858978 -0.02899885 -0.02346289 0.9993041 -0.01150095 0.9999334 0.001027464 0.06843954 0.9975809 0.01218181 -0.4721519 0.8814882 0.007171511 -0.06218492 0.6745689 -0.7355881 -0.04644918 0.8246201 -0.5637769 -0.187548 0.3645332 -0.9121082 -0.8200834 0.572244 -1.2523e-4 0.07273077 0.9971684 -0.01911538 -0.6822881 0.7308856 -0.01700931 -0.1505549 0.664548 -0.7319217 -0.3921672 0.9198939 -3.69343e-4</float_array>
          <technique_common>
            <accessor source="#Mesh_005-mesh-normals-array" count="218" stride="3">
              <param name="X" type="float"/>
              <param name="Y" type="float"/>
              <param name="Z" type="float"/>
            </accessor>
          </technique_common>
        </source>
        <source id="Mesh_005-mesh-map-0">
          <float_array id="Mesh_005-mesh-map-0-array" count="1812">0.598875 0.5476258 0.5941166 0.5474323 0.5986409 0.5094119 0.6094158 0.5085069 0.6216706 0.5440973 0.6065179 0.5091978 0.5988267 0.5027244 0.594388 0.5025826 0.5971572 0.4949747 0.5862951 0.4941818 0.5871568 0.4909189 0.5871634 0.4942045 0.770123 0.8040378 0.7690149 0.8060947 0.768588 0.8053128 0.7553504 0.8068102 0.7549442 0.8077202 0.7549442 0.8068183 0.7536758 0.8086212 0.7528914 0.8087291 0.7536799 0.8083452 0.7553504 0.8068102 0.7549442 0.8068183 0.7553439 0.7960126 0.7526719 0.8077852 0.7536799 0.8083452 0.7527149 0.8084443 0.7549442 0.8077202 0.7553125 0.8083741 0.7549442 0.8083762 0.7536758 0.8068261 0.7549442 0.8077202 0.7536778 0.8077175 0.7536778 0.8077175 0.7549442 0.8083762 0.7536799 0.8083452 0.7536799 0.8083452 0.7549442 0.8083762 0.7536758 0.8086212 0.7681133 0.8073926 0.7707753 0.8052211 0.7693893 0.8086509 0.7681133 0.8073926 0.7690149 0.8060947 0.7707753 0.8052211 0.7777121 1.160354 0.6789875 1.156522 0.7865406 -0.1167426 0.8118791 1.161569 0.7777121 1.160354 0.824752 -0.1157328 0.5971572 0.4949747 0.5980639 0.4950292 0.5988267 0.5027244 0.5986409 0.5094119 0.6001945 0.5094622 0.598875 0.5476258 0.5899888 0.5472632 0.588575 0.5472052 0.5903277 0.509149 0.5905207 0.5024616 0.5891836 0.5024193 0.5899986 0.49484 0.5899065 0.4910247 0.5931414 0.4911475 0.5899819 0.494291 0.5948521 1.153327 0.5655188 1.15215 0.6154484 -0.1211922 0.6082741 0.4948053 0.6082046 0.5021377 0.6054818 0.495211 0.6082675 0.4913125 0.6082741 0.4948053 0.6055112 0.4916833 0.6030128 0.4955003 0.6017196 0.5028251 0.6006278 0.495277 0.608261 0.5475745 0.6058443 0.5478828 0.6058313 0.5094877 0.6050786 0.5026009 0.6030128 0.4955003 0.6054818 0.495211 0.6054818 0.495211 0.6030315 0.4919509 0.6055112 0.4916833 1.000707 1.170456 0.9441567 -0.1119908 1.007676 -0.1105408 0.5986409 0.5094119 0.5941893 0.5092714 0.5987388 0.5060692 0.6094158 0.5085069 0.6056901 0.505914 0.6086998 0.5053375 0.5905207 0.5024616 0.594388 0.5025826 0.5904248 0.5058052 0.6033099 0.5095037 0.6017779 0.5094974 0.6030771 0.5061991 0.5988267 0.5027244 0.6002919 0.5061223 0.5987388 0.5060692 0.6001945 0.5094622 0.5987388 0.5060692 0.6002919 0.5061223 0.5903277 0.509149 0.5890192 0.509107 0.5904248 0.5058052 0.5861562 0.5023232 0.5871984 0.5023575 0.5860983 0.5056677 0.6050786 0.5026009 0.6086998 0.5053375 0.6056901 0.505914 0.6058313 0.5094877 0.6030771 0.5061991 0.6054515 0.5060096 0.6029144 0.5028684 0.6054515 0.5060096 0.6030771 0.5061991 0.6006928 0.4916664 0.6030315 0.4919509 0.6006278 0.495277 0.6017779 0.5094974 0.6033099 0.5095037 0.6034706 0.5478078 0.6017196 0.5028251 0.6014909 0.5028125 0.6006278 0.495277 0.888995 -0.1136566 0.9441567 -0.1119908 0.8753871 1.170017 0.6017779 0.5094974 0.6014732 0.5094922 0.6017425 0.5061666 0.6017196 0.5028251 0.6029144 0.5028684 0.6017425 0.5061666 0.5941166 0.5474323 0.5899888 0.5472632 0.5941893 0.5092714 0.594388 0.5025826 0.5905207 0.5024616 0.5933182 0.4949067 0.6789875 1.156522 0.5948521 1.153327 0.6964306 -0.1191572 0.5931414 0.4911475 0.5969372 0.4912949 0.5933108 0.4943901 0.5941893 0.5092714 0.5903277 0.509149 0.5942873 0.5059275 0.594388 0.5025826 0.5988267 0.5027244 0.5942873 0.5059275 0.6006928 0.4916664 0.6001882 0.4952285 0.6002489 0.4916034 0.6017779 0.5094974 0.6034706 0.5478078 0.6014732 0.5094922 0.888995 -0.1136566 0.8753871 1.170017 0.8775249 -0.114124 0.6017196 0.5028251 0.6017425 0.5061666 0.6014909 0.5028125 0.5887786 0.4909794 0.5899065 0.4910247 0.5888369 0.4942542 0.588575 0.5472052 0.5864752 0.5471216 0.5890192 0.509107 0.5891836 0.5024193 0.5871984 0.5023575 0.588858 0.4948146 0.5655188 1.15215 0.5233387 1.150576 0.5863259 -0.1219102 0.5890192 0.509107 0.587072 0.509046 0.5891027 0.5057634 0.5891836 0.5024193 0.5905207 0.5024616 0.5891027 0.5057634 0.5871568 0.4909189 0.5887786 0.4909794 0.5871634 0.4942045 0.5871984 0.5023575 0.5891836 0.5024193 0.5871354 0.5057015 0.5864752 0.5471216 0.5853757 0.547077 0.587072 0.509046 0.5871984 0.5023575 0.5861562 0.5023232 0.5871744 0.4947801 0.5233387 1.150576 0.5039129 1.149893 0.5430173 -0.1229535 0.587072 0.509046 0.5860399 0.5090128 0.5871354 0.5057015 0.6014909 0.5028125 0.600376 0.5027858 0.6001882 0.4952285 0.6014732 0.5094922 0.6001945 0.5094622 0.6014826 0.5061547 0.6001882 0.4952285 0.5980639 0.4950292 0.6002489 0.4916034 0.6030113 0.5477943 0.6008369 0.547707 0.6014732 0.5094922 0.8638442 1.16838 0.8118791 1.161569 0.8775249 -0.114124 0.6014826 0.5061547 0.6002919 0.5061223 0.6014909 0.5028125 0.5734258 0.5089435 0.5778822 0.5089668 0.5766144 0.5471085 0.7536778 0.7842127 0.7536759 0.785104 0.7527078 0.785072 0.04381686 -0.1288261 0.005907595 1.151636 -0.06540727 1.139369 0.5754585 0.4945666 0.5792871 0.4946343 0.5779398 0.5022723 0.5862951 0.4941818 0.5856651 0.490891 0.5864099 0.4908927 0.7700924 0.7949931 0.7677803 0.7952488 0.7692927 0.7939495 0.7687112 0.7978988 0.768343 0.7959344 0.7700924 0.7949931 0.7553502 0.78512 0.7549442 0.7842099 0.7553275 0.7842115 0.7553439 0.7960126 0.7549442 0.7960126 0.7549442 0.7851117 0.7537444 0.7960126 0.752705 0.7960126 0.7527078 0.785072 0.7526719 0.7841449 0.7536799 0.7835849 0.7536778 0.7842127 0.7549442 0.7842099 0.7553126 0.7835561 0.7553275 0.7842115 0.7537444 0.7960126 0.7536759 0.785104 0.7540086 0.7960126 0.7536759 0.785104 0.7549442 0.7842099 0.7549442 0.7851117 0.7536778 0.7842127 0.7549442 0.7835539 0.7549442 0.7842099 0.2646914 -0.1267794 0.3549377 -0.1259583 0.327539 1.149531 0.2264736 -0.1272004 0.2646914 -0.1267794 0.2287603 1.149873 0.5735158 0.5022575 0.5719864 0.5022547 0.5745714 0.4945815 0.5718486 0.5471251 0.5698849 0.5471261 0.5718705 0.5089299 0.5817479 0.5089861 0.5830579 0.5089955 0.5821695 0.5470901 0.5825935 0.4946863 0.5837227 0.4947075 0.5831326 0.5023003 0.5826343 0.4941271 0.5793267 0.4941145 0.5796285 0.4908787 0.4362191 -0.1250389 0.4656424 -0.1245068 0.442251 1.149381 0.567165 0.4944855 0.5673022 0.5018814 0.5641911 0.5013085 0.5672621 0.4909597 0.567165 0.4944855 0.5643873 0.4939786 0.5696244 0.4948661 0.5706692 0.5022403 0.5694671 0.5022292 0.5663147 0.5087397 0.568816 0.5088403 0.5649681 0.5471135 0.5673022 0.5018814 0.5696244 0.4948661 0.5694671 0.5022292 0.567165 0.4944855 0.5697306 0.4913184 0.5696244 0.4948661 0.005907595 1.151636 0.1072381 -0.1279402 0.07010871 1.160966 0.5734539 0.5056036 0.5779118 0.5056208 0.5778822 0.5089668 0.5817738 0.5056382 0.5779118 0.5056208 0.5779398 0.5022723 0.5691263 0.5055439 0.5704449 0.505571 0.5703121 0.5088927 0.5735158 0.5022575 0.5718928 0.5055909 0.5719864 0.5022547 0.5718705 0.5089299 0.5734539 0.5056036 0.5734258 0.5089435 0.5817738 0.5056382 0.5830944 0.5056476 0.5830579 0.5089955 0.5860983 0.5056677 0.5850611 0.5056599 0.5851147 0.5023143 0.5673022 0.5018814 0.5635782 0.5044896 0.5641911 0.5013085 0.5663147 0.5087397 0.5691263 0.5055439 0.568816 0.5088403 0.5694671 0.5022292 0.5667748 0.5052702 0.5673022 0.5018814 0.5720156 0.4947308 0.5696244 0.4948661 0.5697306 0.4913184 0.5672665 0.5471172 0.5649681 0.5471135 0.568816 0.5088403 0.5720156 0.4947308 0.5724517 0.4947018 0.5708879 0.5022339 0.1311069 1.155798 0.07010871 1.160966 0.1072381 -0.1279402 0.5704449 0.505571 0.5707016 0.50557 0.5705965 0.5089057 0.5704449 0.505571 0.5691263 0.5055439 0.5694671 0.5022292 0.5778822 0.5089668 0.5817479 0.5089861 0.5807503 0.5470927 0.5792871 0.4946343 0.5825935 0.4946863 0.5818011 0.5022902 0.3549377 -0.1259583 0.4362191 -0.1250389 0.4122619 1.149228 0.5793267 0.4941145 0.5755053 0.4940918 0.5758306 0.4908919 0.5779118 0.5056208 0.5817738 0.5056382 0.5817479 0.5089861 0.5779118 0.5056208 0.5734539 0.5056036 0.5735158 0.5022575 0.5720759 0.4911197 0.5724517 0.4947018 0.5720156 0.4947308 0.5705965 0.5089057 0.567713 0.5471275 0.5672665 0.5471172 0.1737319 -0.1275362 0.1426143 1.154672 0.1311069 1.155798 0.5708879 0.5022339 0.5707016 0.50557 0.5704449 0.505571 0.5837538 0.4941392 0.5826343 0.4941271 0.582886 0.4908671 0.5830579 0.5089955 0.5850068 0.5090067 0.5842742 0.5470826 0.5837227 0.4947075 0.5854003 0.4947412 0.5851147 0.5023143 0.4656424 -0.1245068 0.5091325 -0.123767 0.4845412 1.14985 0.5830944 0.5056476 0.5850611 0.5056599 0.5850068 0.5090067 0.5830944 0.5056476 0.5817738 0.5056382 0.5818011 0.5022902 0.585424 0.4941704 0.5837538 0.4941392 0.5840391 0.490873 0.5850611 0.5056599 0.5830944 0.5056476 0.5831326 0.5023003 0.5850068 0.5090067 0.5860399 0.5090128 0.5853757 0.547077 0.5854003 0.4947412 0.5862868 0.4947606 0.5861562 0.5023232 0.5091325 -0.123767 0.5260981 -0.1234506 0.5039129 1.149893 0.5850611 0.5056599 0.5860983 0.5056677 0.5860399 0.5090128 0.5724517 0.4947018 0.5745714 0.4945815 0.5719864 0.5022547 0.5707016 0.50557 0.5718928 0.5055909 0.5718705 0.5089299 0.5725184 0.4910764 0.5745219 0.4908877 0.5745714 0.4945815 0.5705965 0.5089057 0.5718705 0.5089299 0.5698849 0.5471261 0.1737319 -0.1275362 0.2264736 -0.1272004 0.1947234 1.149764 0.5708879 0.5022339 0.5719864 0.5022547 0.5718928 0.5055909 0.5941166 0.5474323 0.5941893 0.5092714 0.5986409 0.5094119 0.7527078 0.8068581 0.7536758 0.8068261 0.7536778 0.8077175 1.072394 1.160812 1.000707 1.170456 1.007676 -0.1105408 0.594388 0.5025826 0.5933182 0.4949067 0.5971572 0.4949747 0.5862951 0.4941818 0.5864099 0.4908927 0.5871568 0.4909189 0.770123 0.8040378 0.7707753 0.8052211 0.7690149 0.8060947 0.7668976 0.8042307 0.770123 0.8040378 0.768588 0.8053128 0.7553504 0.8068102 0.7553275 0.8077186 0.7549442 0.8077202 0.7528914 0.8087291 0.7527149 0.8084443 0.7536799 0.8083452 0.7549442 0.8068183 0.7549442 0.7960126 0.7553439 0.7960126 0.7527078 0.8068581 0.752705 0.7960126 0.7537444 0.7960126 0.7526719 0.8077852 0.7536778 0.8077175 0.7536799 0.8083452 0.7549442 0.8077202 0.7553275 0.8077186 0.7553125 0.8083741 0.7549442 0.7960126 0.7549442 0.8068183 0.7536758 0.8068261 0.7540086 0.7960126 0.7549442 0.7960126 0.7536758 0.8068261 0.7536758 0.8068261 0.7549442 0.8068183 0.7549442 0.8077202 0.7536778 0.8077175 0.7549442 0.8077202 0.7549442 0.8083762 0.6789875 1.156522 0.6964306 -0.1191572 0.7865406 -0.1167426 0.7777121 1.160354 0.7865406 -0.1167426 0.824752 -0.1157328 0.5980639 0.4950292 0.600376 0.5027858 0.5988267 0.5027244 0.6001945 0.5094622 0.6008369 0.547707 0.598875 0.5476258 0.588575 0.5472052 0.5890192 0.509107 0.5903277 0.509149 0.5891836 0.5024193 0.588858 0.4948146 0.5899986 0.49484 0.5931414 0.4911475 0.5933108 0.4943901 0.5899819 0.494291 0.5655188 1.15215 0.5863259 -0.1219102 0.6154484 -0.1211922 0.6082046 0.5021377 0.6050786 0.5026009 0.6054818 0.495211 0.6082741 0.4948053 0.6054818 0.495211 0.6055112 0.4916833 0.6030128 0.4955003 0.6029144 0.5028684 0.6017196 0.5028251 0.6058443 0.5478828 0.6033099 0.5095037 0.6058313 0.5094877 0.6050786 0.5026009 0.6029144 0.5028684 0.6030128 0.4955003 0.6054818 0.495211 0.6030128 0.4955003 0.6030315 0.4919509 1.000707 1.170456 0.9362133 1.177415 0.9441567 -0.1119908 0.5941893 0.5092714 0.5942873 0.5059275 0.5987388 0.5060692 0.6094158 0.5085069 0.6065179 0.5091978 0.6056901 0.505914 0.594388 0.5025826 0.5942873 0.5059275 0.5904248 0.5058052 0.6017779 0.5094974 0.6017425 0.5061666 0.6030771 0.5061991 0.5988267 0.5027244 0.600376 0.5027858 0.6002919 0.5061223 0.6001945 0.5094622 0.5986409 0.5094119 0.5987388 0.5060692 0.5890192 0.509107 0.5891027 0.5057634 0.5904248 0.5058052 0.5871984 0.5023575 0.5871354 0.5057015 0.5860983 0.5056677 0.6050786 0.5026009 0.6082046 0.5021377 0.6086998 0.5053375 0.6058313 0.5094877 0.6033099 0.5095037 0.6030771 0.5061991 0.6029144 0.5028684 0.6050786 0.5026009 0.6054515 0.5060096 0.6030315 0.4919509 0.6030128 0.4955003 0.6006278 0.495277 0.6033099 0.5095037 0.6058443 0.5478828 0.6034706 0.5478078 0.6014909 0.5028125 0.6001882 0.4952285 0.6006278 0.495277 0.9441567 -0.1119908 0.9362133 1.177415 0.8753871 1.170017 0.6014732 0.5094922 0.6014826 0.5061547 0.6017425 0.5061666 0.6029144 0.5028684 0.6030771 0.5061991 0.6017425 0.5061666 0.5899888 0.5472632 0.5903277 0.509149 0.5941893 0.5092714 0.5905207 0.5024616 0.5899986 0.49484 0.5933182 0.4949067 0.5948521 1.153327 0.6154484 -0.1211922 0.6964306 -0.1191572 0.5969372 0.4912949 0.5971342 0.4945006 0.5933108 0.4943901 0.5903277 0.509149 0.5904248 0.5058052 0.5942873 0.5059275 0.5988267 0.5027244 0.5987388 0.5060692 0.5942873 0.5059275 0.6006928 0.4916664 0.6006278 0.495277 0.6001882 0.4952285 0.6034706 0.5478078 0.6030113 0.5477943 0.6014732 0.5094922 0.8753871 1.170017 0.8638442 1.16838 0.8775249 -0.114124 0.6017425 0.5061666 0.6014826 0.5061547 0.6014909 0.5028125 0.5899065 0.4910247 0.5899819 0.494291 0.5888369 0.4942542 0.5864752 0.5471216 0.587072 0.509046 0.5890192 0.509107 0.5871984 0.5023575 0.5871744 0.4947801 0.588858 0.4948146 0.5233387 1.150576 0.5430173 -0.1229535 0.5863259 -0.1219102 0.587072 0.509046 0.5871354 0.5057015 0.5891027 0.5057634 0.5905207 0.5024616 0.5904248 0.5058052 0.5891027 0.5057634 0.5887786 0.4909794 0.5888369 0.4942542 0.5871634 0.4942045 0.5891836 0.5024193 0.5891027 0.5057634 0.5871354 0.5057015 0.5853757 0.547077 0.5860399 0.5090128 0.587072 0.509046 0.5861562 0.5023232 0.5862868 0.4947606 0.5871744 0.4947801 0.5039129 1.149893 0.5260981 -0.1234506 0.5430173 -0.1229535 0.5860399 0.5090128 0.5860983 0.5056677 0.5871354 0.5057015 0.600376 0.5027858 0.5980639 0.4950292 0.6001882 0.4952285 0.6001945 0.5094622 0.6002919 0.5061223 0.6014826 0.5061547 0.5980639 0.4950292 0.5982509 0.4913416 0.6002489 0.4916034 0.6008369 0.547707 0.6001945 0.5094622 0.6014732 0.5094922 0.8118791 1.161569 0.824752 -0.1157328 0.8775249 -0.114124 0.6002919 0.5061223 0.600376 0.5027858 0.6014909 0.5028125 0.5766144 0.5471085 0.5718486 0.5471251 0.5734258 0.5089435 0.7527078 0.785072 0.7526719 0.7841449 0.7536778 0.7842127 0.5627448 0.5076329 0.5656155 0.5084301 0.5491821 0.5427476 -0.06540727 1.139369 -0.01649612 -0.1300554 0.04381686 -0.1288261 0.5779398 0.5022723 0.5735158 0.5022575 0.5754585 0.4945666 0.5862951 0.4941818 0.585424 0.4941704 0.5856651 0.490891 0.7700924 0.7949931 0.768343 0.7959344 0.7677803 0.7952488 0.7553502 0.78512 0.7549442 0.7851117 0.7549442 0.7842099 0.7549442 0.7851117 0.7553502 0.78512 0.7553439 0.7960126 0.7527078 0.785072 0.7536759 0.785104 0.7537444 0.7960126 0.7526719 0.7841449 0.7527151 0.7834857 0.7536799 0.7835849 0.7549442 0.7842099 0.7549442 0.7835539 0.7553126 0.7835561 0.7536759 0.785104 0.7549442 0.7851117 0.7549442 0.7960126 0.7536759 0.785104 0.7549442 0.7960126 0.7540086 0.7960126 0.7536759 0.785104 0.7536778 0.7842127 0.7549442 0.7842099 0.7536778 0.7842127 0.7536799 0.7835849 0.7549442 0.7835539 0.327539 1.149531 0.2287603 1.149873 0.2646914 -0.1267794 0.2287603 1.149873 0.1947234 1.149764 0.2264736 -0.1272004 0.5745714 0.4945815 0.5754585 0.4945666 0.5735158 0.5022575 0.5718705 0.5089299 0.5734258 0.5089435 0.5718486 0.5471251 0.5821695 0.5470901 0.5807503 0.5470927 0.5817479 0.5089861 0.5831326 0.5023003 0.5818011 0.5022902 0.5825935 0.4946863 0.5796285 0.4908787 0.582886 0.4908671 0.5826343 0.4941271 0.442251 1.149381 0.4122619 1.149228 0.4362191 -0.1250389 0.5641911 0.5013085 0.5643873 0.4939786 0.567165 0.4944855 0.5643873 0.4939786 0.5645201 0.490488 0.5672621 0.4909597 0.5696244 0.4948661 0.5720156 0.4947308 0.5706692 0.5022403 0.5649681 0.5471135 0.5626368 0.5466934 0.5663147 0.5087397 0.5673022 0.5018814 0.567165 0.4944855 0.5696244 0.4948661 0.567165 0.4944855 0.5672621 0.4909597 0.5697306 0.4913184 0.005907595 1.151636 0.04381686 -0.1288261 0.1072381 -0.1279402 0.5778822 0.5089668 0.5734258 0.5089435 0.5734539 0.5056036 0.5627448 0.5076329 0.5635782 0.5044896 0.5665656 0.5051758 0.5779398 0.5022723 0.5818011 0.5022902 0.5817738 0.5056382 0.5703121 0.5088927 0.568816 0.5088403 0.5691263 0.5055439 0.5735158 0.5022575 0.5734539 0.5056036 0.5718928 0.5055909 0.5718705 0.5089299 0.5718928 0.5055909 0.5734539 0.5056036 0.5830579 0.5089955 0.5817479 0.5089861 0.5817738 0.5056382 0.5851147 0.5023143 0.5861562 0.5023232 0.5860983 0.5056677 0.5673022 0.5018814 0.5665656 0.5051758 0.5635782 0.5044896 0.5663147 0.5087397 0.5667748 0.5052702 0.5691263 0.5055439 0.5694671 0.5022292 0.5691263 0.5055439 0.5667748 0.5052702 0.5697306 0.4913184 0.5720759 0.4911197 0.5720156 0.4947308 0.568816 0.5088403 0.5703121 0.5088927 0.5672665 0.5471172 0.5708879 0.5022339 0.5706692 0.5022403 0.5720156 0.4947308 0.1072381 -0.1279402 0.1623254 -0.1275749 0.1311069 1.155798 0.5705965 0.5089057 0.5703121 0.5088927 0.5704449 0.505571 0.5694671 0.5022292 0.5706692 0.5022403 0.5704449 0.505571 0.5807503 0.5470927 0.5766144 0.5471085 0.5778822 0.5089668 0.5818011 0.5022902 0.5779398 0.5022723 0.5792871 0.4946343 0.4122619 1.149228 0.327539 1.149531 0.3549377 -0.1259583 0.5758306 0.4908919 0.5796285 0.4908787 0.5793267 0.4941145 0.5817479 0.5089861 0.5778822 0.5089668 0.5779118 0.5056208 0.5735158 0.5022575 0.5779398 0.5022723 0.5779118 0.5056208 0.5720759 0.4911197 0.5725184 0.4910764 0.5724517 0.4947018 0.5672665 0.5471172 0.5703121 0.5088927 0.5705965 0.5089057 0.1311069 1.155798 0.1623254 -0.1275749 0.1737319 -0.1275362 0.5704449 0.505571 0.5706692 0.5022403 0.5708879 0.5022339 0.582886 0.4908671 0.5840391 0.490873 0.5837538 0.4941392 0.5842742 0.5470826 0.5821695 0.5470901 0.5830579 0.5089955 0.5851147 0.5023143 0.5831326 0.5023003 0.5837227 0.4947075 0.4845412 1.14985 0.442251 1.149381 0.4656424 -0.1245068 0.5850068 0.5090067 0.5830579 0.5089955 0.5830944 0.5056476 0.5818011 0.5022902 0.5831326 0.5023003 0.5830944 0.5056476 0.5840391 0.490873 0.5856651 0.490891 0.585424 0.4941704 0.5831326 0.5023003 0.5851147 0.5023143 0.5850611 0.5056599 0.5853757 0.547077 0.5842742 0.5470826 0.5850068 0.5090067 0.5861562 0.5023232 0.5851147 0.5023143 0.5854003 0.4947412 0.5039129 1.149893 0.4845412 1.14985 0.5091325 -0.123767 0.5860399 0.5090128 0.5850068 0.5090067 0.5850611 0.5056599 0.5719864 0.5022547 0.5708879 0.5022339 0.5724517 0.4947018 0.5718705 0.5089299 0.5705965 0.5089057 0.5707016 0.50557 0.5745714 0.4945815 0.5724517 0.4947018 0.5725184 0.4910764 0.5698849 0.5471261 0.567713 0.5471275 0.5705965 0.5089057 0.1947234 1.149764 0.1426143 1.154672 0.1737319 -0.1275362 0.5718928 0.5055909 0.5707016 0.50557 0.5708879 0.5022339</float_array>
          <technique_common>
            <accessor source="#Mesh_005-mesh-map-0-array" count="906" stride="2">
              <param name="S" type="float"/>
              <param name="T" type="float"/>
            </accessor>
          </technique_common>
        </source>
        <vertices id="Mesh_005-mesh-vertices">
          <input semantic="POSITION" source="#Mesh_005-mesh-positions"/>
        </vertices>
        <triangles material="Material__25-material" count="259">
          <input semantic="VERTEX" source="#Mesh_005-mesh-vertices" offset="0"/>
          <input semantic="NORMAL" source="#Mesh_005-mesh-normals" offset="1"/>
          <input semantic="TEXCOORD" source="#Mesh_005-mesh-map-0" offset="2" set="0"/>
          <p>32 0 0 72 1 1 48 2 2 54 3 3 2 4 4 52 5 5 49 6 6 75 7 7 9 8 8 12 9 9 94 10 10 93 11 11 6 12 12 15 13 13 14 14 14 14 14 15 17 15 16 16 16 17 27 17 18 21 18 19 26 19 20 14 14 21 16 16 22 137 20 23 18 21 24 26 22 25 22 23 26 17 15 27 20 24 28 23 25 29 24 26 30 17 15 31 25 27 32 25 27 33 23 25 34 26 28 35 26 19 36 23 29 37 27 17 38 28 30 39 7 31 40 8 32 41 28 30 42 15 33 43 7 31 44 9 8 51 8 38 52 49 6 53 48 2 54 61 39 55 32 0 56 33 40 57 80 41 58 46 42 59 45 43 60 83 44 61 34 45 62 36 46 63 78 34 64 35 47 65 38 50 69 55 51 70 39 52 71 41 53 72 38 50 73 42 54 74 40 55 75 68 56 76 69 57 77 2 4 78 3 58 79 52 5 80 51 59 81 40 55 82 39 52 83 39 52 84 43 60 85 42 54 86 48 2 90 73 63 91 47 64 92 54 3 93 50 65 94 53 66 95 45 43 96 75 7 97 44 67 98 58 68 99 66 69 100 56 70 101 49 6 102 59 71 103 47 64 104 61 39 105 47 64 106 59 71 107 46 42 108 81 72 109 44 67 110 64 73 111 91 74 112 62 75 113 51 59 114 53 66 115 50 65 116 52 5 117 56 70 118 50 65 119 57 76 120 50 65 121 56 70 122 70 77 123 43 60 124 69 57 125 66 69 126 58 68 127 65 78 128 68 56 129 99 79 130 69 57 131 66 69 135 101 81 136 67 82 137 68 56 138 57 76 139 67 82 140 72 1 141 33 40 142 73 63 143 75 7 144 45 43 145 76 83 146 78 34 150 6 12 151 77 85 152 73 63 153 46 42 154 74 86 155 75 7 156 49 6 157 74 86 158 70 77 159 98 87 160 97 88 161 66 69 162 65 78 163 101 81 164 68 56 168 67 82 169 99 79 170 86 48 171 36 46 172 85 90 173 80 41 174 88 91 175 81 72 176 83 44 177 91 74 178 84 92 179 81 72 183 89 94 184 82 95 185 83 44 186 45 43 187 82 95 188 94 10 189 86 48 190 93 11 191 91 74 192 83 44 193 90 96 194 88 91 195 1 97 196 89 94 197 91 74 198 64 73 199 92 98 200 89 94 204 63 101 205 90 96 206 99 79 207 60 102 208 98 87 209 101 81 210 61 39 211 100 103 212 98 87 213 8 38 214 97 88 215 102 104 216 31 105 217 101 81 218 100 103 222 59 71 223 99 79 224 109 106 225 108 107 226 107 108 227 113 109 228 112 110 229 111 111 230 124 115 234 123 116 235 122 117 236 12 9 237 127 118 238 10 99 239 129 119 240 131 120 241 130 121 242 125 122 243 200 122 244 129 122 245 200 123 246 133 124 247 131 120 248 137 20 249 103 125 250 134 126 251 139 127 252 138 128 253 111 111 254 110 129 255 136 130 256 113 109 257 133 124 258 140 131 259 131 120 260 139 132 261 112 133 262 142 134 263 112 133 264 133 124 265 134 126 266 113 135 267 141 136 268 133 124 269 121 141 276 150 142 277 132 143 278 106 144 279 152 145 280 151 146 281 156 147 282 155 148 283 154 149 284 160 150 285 159 151 286 158 152 287 162 153 288 126 154 289 146 139 290 168 158 294 167 159 295 143 160 296 119 113 297 168 158 298 144 161 299 169 162 300 171 163 301 170 164 302 116 165 303 174 166 304 173 167 305 167 159 306 169 162 307 170 164 308 168 158 309 175 168 310 169 162 311 177 170 315 176 171 316 108 107 317 180 172 318 176 171 319 122 117 320 183 173 321 182 174 322 181 175 323 121 141 324 184 176 325 150 142 326 151 146 327 177 170 328 109 106 329 180 172 330 185 177 331 155 148 332 62 75 333 187 178 334 186 179 335 167 159 336 179 180 337 143 160 338 116 165 339 183 173 340 174 166 341 170 164 342 178 181 343 167 159 344 172 182 345 169 162 346 175 168 347 190 183 348 173 167 349 174 166 350 172 182 351 192 184 352 191 185 353 182 174 357 194 187 358 193 188 359 182 174 360 183 173 361 170 164 362 108 107 363 156 147 364 153 189 365 123 116 366 160 150 367 157 190 368 126 154 372 125 192 373 129 119 374 176 171 375 180 172 376 156 147 377 176 171 378 177 170 379 121 141 380 189 186 381 192 184 382 172 182 383 193 188 384 196 193 385 190 183 386 191 185 390 194 187 391 182 174 392 161 196 393 162 153 394 163 191 395 155 148 396 197 197 397 145 198 398 159 151 399 198 199 400 186 179 401 185 177 405 187 178 406 197 197 407 185 177 408 180 172 409 157 190 410 128 201 411 161 196 412 164 157 413 187 178 414 185 177 415 158 152 416 197 197 417 63 101 418 1 97 419 198 199 420 11 202 421 64 73 422 187 178 426 62 75 427 63 101 428 192 184 429 132 143 430 150 142 431 194 187 432 184 176 433 151 146 434 195 195 435 130 121 436 132 143 437 193 188 438 151 146 439 152 145 440 191 185 444 150 142 445 184 176 446 72 1 447 73 63 448 48 2 449 19 204 450 24 204 451 25 204 452 75 7 456 76 83 457 9 8 458 12 9 459 10 99 460 94 10 461 6 12 462 7 36 463 15 13 464 13 205 465 6 205 466 14 205 467 14 14 468 15 13 469 17 15 470 21 18 471 22 206 472 26 19 473 16 16 474 103 125 475 137 20 476 19 207 477 138 128 478 139 127 479 18 21 480 25 208 481 26 22 482 17 15 483 15 13 484 20 24 485 103 125 486 16 16 487 24 26 488 142 134 489 103 125 490 24 26 491 24 26 492 16 16 493 17 15 494 25 27 495 17 15 496 23 25 497 8 38 504 60 102 505 49 6 506 61 39 507 31 105 508 32 0 509 80 41 510 81 72 511 46 42 512 83 44 513 84 92 514 34 45 515 78 34 516 77 85 517 35 47 518 55 51 522 51 59 523 39 52 524 38 50 525 39 52 526 42 54 527 40 55 528 57 76 529 68 56 530 3 58 531 58 68 532 52 5 533 51 59 534 57 76 535 40 55 536 39 52 537 40 55 538 43 60 539 73 63 543 74 86 544 47 64 545 54 3 546 52 5 547 50 65 548 75 7 549 74 86 550 44 67 551 66 69 552 67 82 553 56 70 554 49 6 555 60 102 556 59 71 557 61 39 558 48 2 559 47 64 560 81 72 561 82 95 562 44 67 563 91 74 564 90 96 565 62 75 566 51 59 567 55 51 568 53 66 569 52 5 570 58 68 571 56 70 572 57 76 573 51 59 574 50 65 575 43 60 576 40 55 577 69 57 578 58 68 579 3 58 580 65 78 581 99 79 582 98 87 583 69 57 584 101 81 588 100 103 589 67 82 590 57 76 591 56 70 592 67 82 593 33 40 594 46 42 595 73 63 596 45 43 597 34 45 598 76 83 599 6 12 603 13 209 604 77 85 605 46 42 606 44 67 607 74 86 608 49 6 609 47 64 610 74 86 611 70 77 612 69 57 613 98 87 614 65 78 615 102 104 616 101 81 617 67 82 621 100 103 622 99 79 623 36 46 624 35 47 625 85 90 626 88 91 627 89 94 628 81 72 629 91 74 630 92 98 631 84 92 632 89 94 636 90 96 637 82 95 638 45 43 639 44 67 640 82 95 641 86 48 642 85 90 643 93 11 644 83 44 645 82 95 646 90 96 647 1 97 648 63 101 649 89 94 650 64 73 651 11 202 652 92 98 653 63 101 657 62 75 658 90 96 659 60 102 660 8 38 661 98 87 662 61 39 663 59 71 664 100 103 665 8 38 666 7 36 667 97 88 668 31 105 669 61 39 670 101 81 671 59 71 675 60 102 676 99 79 677 107 108 678 106 144 679 109 106 680 111 111 681 110 129 682 113 109 683 114 210 684 116 165 685 115 211 686 122 117 690 121 141 691 124 115 692 12 9 693 128 201 694 127 118 695 129 119 696 200 123 697 131 120 698 200 123 699 134 126 700 133 124 701 134 126 702 200 123 703 137 213 704 111 111 705 112 110 706 139 127 707 110 129 708 135 214 709 136 130 710 133 124 711 141 136 712 140 131 713 112 133 714 134 126 715 103 125 716 112 133 717 103 125 718 142 134 719 112 133 720 113 135 721 133 124 722 113 135 723 136 215 724 141 136 725 132 143 732 124 115 733 121 141 734 151 146 735 109 106 736 106 144 737 154 149 738 153 189 739 156 147 740 158 152 741 157 190 742 160 150 743 146 139 744 163 191 745 162 153 746 143 160 750 144 161 751 168 158 752 144 161 753 118 114 754 119 113 755 169 162 756 172 182 757 171 163 758 173 167 759 115 211 760 116 165 761 167 159 762 168 158 763 169 162 764 168 158 765 119 113 766 175 168 767 108 107 771 109 106 772 177 170 773 114 216 774 179 180 775 178 181 776 122 117 777 157 190 778 180 172 779 181 175 780 174 166 781 183 173 782 121 141 783 177 170 784 184 176 785 151 146 786 184 176 787 177 170 788 155 148 789 156 147 790 180 172 791 186 179 792 64 73 793 62 75 794 167 159 795 178 181 796 179 180 797 116 165 798 178 181 799 183 173 800 170 164 801 183 173 802 178 181 803 175 168 804 189 186 805 172 182 806 174 166 807 181 175 808 190 183 809 191 185 810 171 163 811 172 182 812 193 188 816 181 175 817 182 174 818 170 164 819 171 163 820 182 174 821 153 189 822 107 108 823 108 107 824 157 190 825 122 117 826 123 116 827 129 119 831 146 139 832 126 154 833 156 147 834 108 107 835 176 171 836 121 141 837 122 117 838 176 171 839 189 186 840 195 195 841 192 184 842 190 183 843 181 175 844 193 188 845 182 174 849 171 163 850 191 185 851 163 191 852 164 157 853 161 196 854 145 198 855 154 149 856 155 148 857 186 179 858 158 152 859 159 151 860 197 197 864 155 148 865 185 177 866 157 190 867 158 152 868 185 177 869 164 157 870 127 118 871 128 201 872 158 152 873 186 179 874 187 178 875 1 97 876 145 198 877 197 197 878 64 73 879 186 179 880 198 199 881 63 101 885 197 197 886 187 178 887 150 142 888 191 185 889 192 184 890 151 146 891 193 188 892 194 187 893 132 143 894 192 184 895 195 195 896 152 145 897 196 193 898 193 188 899 184 176 903 194 187 904 191 185 905</p>
        </triangles>
        <triangles material="Material_002-material" count="43">
          <input semantic="VERTEX" source="#Mesh_005-mesh-vertices" offset="0"/>
          <input semantic="NORMAL" source="#Mesh_005-mesh-normals" offset="1"/>
          <input semantic="TEXCOORD" source="#Mesh_005-mesh-map-0" offset="2" set="0"/>
          <p>6 12 45 78 34 46 29 35 47 7 36 48 6 12 49 30 37 50 36 46 66 86 48 67 37 49 68 42 54 87 5 61 88 4 62 89 71 80 132 5 61 133 70 77 134 78 34 147 36 46 148 79 84 149 71 80 165 70 77 166 96 89 167 86 48 180 94 10 181 87 93 182 94 10 201 10 99 202 95 100 203 97 88 219 7 36 220 96 89 221 120 112 231 119 113 232 118 114 233 148 137 270 147 138 271 146 139 272 149 140 273 148 137 274 129 119 275 166 155 291 165 156 292 164 157 293 119 113 312 104 169 313 175 168 314 189 186 354 175 168 355 104 169 356 147 138 369 166 155 370 163 191 371 188 194 387 195 195 388 189 186 389 165 156 402 199 200 403 127 118 404 199 200 423 0 203 424 10 99 425 188 194 441 149 140 442 130 121 443 41 53 453 42 54 454 4 62 455 78 34 498 79 84 499 29 35 500 6 12 501 29 35 502 30 37 503 86 48 519 87 93 520 37 49 521 42 54 540 43 60 541 5 61 542 5 61 585 43 60 586 70 77 587 36 46 600 37 49 601 79 84 602 70 77 618 97 88 619 96 89 620 94 10 633 95 100 634 87 93 635 10 99 654 0 203 655 95 100 656 7 36 672 30 37 673 96 89 674 118 114 687 117 212 688 120 112 689 146 139 726 129 119 727 148 137 728 129 119 729 130 121 730 149 140 731 164 157 747 163 191 748 166 155 749 119 113 768 120 112 769 104 169 770 104 169 813 105 217 814 189 186 815 163 191 828 146 139 829 147 138 830 189 186 846 105 217 847 188 194 848 127 118 861 164 157 862 165 156 863 10 99 882 127 118 883 199 200 884 130 121 900 195 195 901 188 194 902</p>
        </triangles>
      </mesh>
    </geometry>
  </library_geometries>
  <library_animations>
    <animation id="action_container-cofre" name="cofre"/>
  </library_animations>
  <library_visual_scenes>
    <visual_scene id="Scene" name="Scene">
      <node id="cofre" name="cofre" type="NODE">
        <matrix sid="transform">-1.35501e-8 4.37089e-10 0.01 0.06613506 0.01 1.84774e-8 1.35501e-8 -0.4327741 -1.84774e-8 0.01 -4.37114e-10 0.2792938 0 0 0 1</matrix>
        <instance_geometry url="#Mesh_005-mesh" name="cofre">
          <bind_material>
            <technique_common>
              <instance_material symbol="Material__25-material" target="#Material__25-material">
                <bind_vertex_input semantic="UVChannel_1" input_semantic="TEXCOORD" input_set="0"/>
              </instance_material>
              <instance_material symbol="Material_001-material" target="#Material_001-material">
                <bind_vertex_input semantic="UVChannel_1" input_semantic="TEXCOORD" input_set="0"/>
              </instance_material>
              <instance_material symbol="Material_002-material" target="#Material_002-material">
                <bind_vertex_input semantic="UVChannel_1" input_semantic="TEXCOORD" input_set="0"/>
              </instance_material>
            </technique_common>
          </bind_material>
        </instance_geometry>
      </node>
    </visual_scene>
  </library_visual_scenes>
  <scene>
    <instance_visual_scene url="#Scene"/>
  </scene>
</COLLADA>